<svg width="125" height="40" viewBox="0 0 125 40" fill="none" xmlns="http://www.w3.org/2000/svg">
<path d="M50.9755 27.6709H49.9541L49.6136 25.0322C48.9679 25.6931 48.2683 26.2991 47.5221 26.844C46.6992 27.3633 45.7586 27.6668 44.7873 27.7263C43.816 27.7858 42.8454 27.5995 41.9652 27.1845C41.2094 26.8857 40.5625 26.3638 40.1107 25.6882C39.6589 25.0126 39.4235 24.2155 39.436 23.4028C39.4151 22.667 39.594 21.9392 39.9537 21.2968C40.3134 20.6545 40.8404 20.1216 41.4788 19.7549C42.9556 18.898 44.6353 18.4529 46.3427 18.466C47.3519 18.466 48.3612 18.466 49.3461 18.466C49.9054 15.0978 48.3247 13.6022 45.6982 13.3468C44.2179 13.2338 42.7473 13.6663 41.5639 14.5628L41.114 14.9032C41.0367 14.9363 40.9546 14.9568 40.8708 14.964L40.275 14.1615C41.2941 13.195 42.5705 12.5432 43.9509 12.2844C45.3314 12.0256 46.7572 12.1707 48.0572 12.7023C48.901 13.1044 49.6048 13.7504 50.0774 14.5569C50.55 15.3633 50.7696 16.2931 50.708 17.2257C50.7809 19.5604 50.708 21.9072 50.708 24.254C50.8053 25.3727 50.9025 26.4671 50.9755 27.6709ZM49.492 19.5482C48.4584 19.5482 47.5465 19.5482 46.6223 19.5482C45.2321 19.5621 43.8575 19.8428 42.5732 20.3751C42.0928 20.5888 41.6716 20.9159 41.3457 21.3284C41.0197 21.7409 40.7988 22.2263 40.7019 22.7431C40.605 23.2598 40.6351 23.7923 40.7895 24.2948C40.9438 24.7973 41.218 25.2549 41.5882 25.6281C42.642 26.3953 43.9549 26.7182 45.2444 26.5271C46.5338 26.3361 47.6967 25.6465 48.4828 24.6067C49.3658 23.0772 49.7205 21.2995 49.492 19.5482ZM77.2039 12.1795C78.2378 12.1413 79.2683 12.3209 80.2283 12.7066C81.1884 13.0924 82.0566 13.6757 82.7767 14.4187C83.4967 15.1617 84.0525 16.0478 84.408 17.0195C84.7635 17.9911 84.9107 19.0267 84.8401 20.0589C84.8176 22.0842 83.9914 24.0175 82.5434 25.4337C81.0953 26.8498 79.144 27.6327 77.1188 27.6101C75.0935 27.5875 73.1602 26.7613 71.744 25.3133C70.3279 23.8652 69.545 21.914 69.5676 19.8887C69.5084 18.8671 69.6648 17.8444 70.0267 16.8871C70.3885 15.9299 70.9477 15.0595 71.6678 14.3324C72.388 13.6054 73.2531 13.038 74.2068 12.667C75.1606 12.2961 76.1817 12.13 77.2039 12.1795ZM83.5999 19.913C83.7023 18.3624 83.2176 16.83 82.2421 15.6202C81.2667 14.4105 79.8718 13.6119 78.3347 13.3833C77.4194 13.1972 76.4741 13.2174 75.5675 13.4425C74.661 13.6675 73.8159 14.0918 73.0939 14.6844C72.0809 15.5489 71.3447 16.6925 70.9772 17.9726C70.6096 19.2526 70.6268 20.6126 71.0268 21.8829C71.2019 22.6649 71.5299 23.4045 71.9919 24.0593C72.4539 24.7141 73.0408 25.2711 73.7189 25.6982C74.3969 26.1254 75.1527 26.4143 75.9427 26.5483C76.7328 26.6824 77.5416 26.6589 78.3226 26.4792C79.8629 26.2448 81.2586 25.4391 82.2319 24.2224C83.2053 23.0058 83.6849 21.4673 83.5755 19.913H83.5999ZM100.113 27.6587H98.8967V12.2524H99.8695L100.003 15.2924C100.599 14.6479 101.049 14.0764 101.572 13.59C102.66 12.6184 104.082 12.1061 105.54 12.1605C106.998 12.2149 108.378 12.8318 109.391 13.8818C110.322 15.0386 110.798 16.4962 110.728 17.9796C110.728 20.7277 110.728 23.488 110.728 26.2482V27.6587H109.622C109.622 27.2939 109.622 26.9778 109.622 26.6616V18.7092C109.612 18.0862 109.559 17.4646 109.463 16.8488C108.819 12.8483 104.904 12.5686 102.739 14.1129C101.906 14.7164 101.234 15.5157 100.782 16.4402C100.33 17.3647 100.113 18.3862 100.149 19.4145C100.076 21.8464 100.149 24.2783 100.149 26.7103C100.149 27.0021 100.149 27.2939 100.149 27.6709L100.113 27.6587ZM124.262 14.5993L123.192 15.1829L122.79 14.6479C122.136 13.9648 121.282 13.5073 120.351 13.3412C119.42 13.1751 118.46 13.309 117.61 13.7238C117.208 13.8992 116.864 14.1857 116.618 14.5496C116.373 14.9135 116.236 15.3399 116.224 15.7787C116.128 16.2463 116.181 16.7323 116.375 17.1685C116.569 17.6046 116.895 17.9691 117.306 18.2107C117.837 18.4774 118.391 18.6971 118.96 18.8673C119.921 19.1713 120.906 19.4145 121.854 19.7428C122.592 19.9632 123.24 20.4112 123.708 21.0228C124.175 21.6343 124.437 22.378 124.456 23.1475C124.51 24.0145 124.29 24.8764 123.828 25.6117C123.365 26.3469 122.683 26.9184 121.878 27.2453C120.705 27.7204 119.418 27.84 118.177 27.5892C116.936 27.3384 115.796 26.7283 114.899 25.8348C114.68 25.6037 114.498 25.3241 114.242 25.0079L115.227 24.3756C115.596 24.9576 116.087 25.4518 116.667 25.8237C117.246 26.1955 117.901 26.4359 118.583 26.5279C119.265 26.6858 119.976 26.667 120.648 26.4734C121.32 26.2798 121.932 25.9176 122.426 25.4213C122.744 25.1192 122.982 24.7436 123.121 24.3275C123.26 23.9113 123.294 23.4675 123.221 23.0351C123.147 22.6026 122.969 22.1948 122.701 21.8476C122.433 21.5004 122.084 21.2244 121.684 21.0439C120.703 20.6455 119.701 20.3044 118.68 20.0225C118.158 19.8522 117.647 19.682 117.136 19.4753C116.409 19.2083 115.795 18.7013 115.395 18.0381C114.995 17.3749 114.833 16.5951 114.935 15.8274C114.961 15.1099 115.208 14.4179 115.644 13.8472C116.08 13.2765 116.682 12.8552 117.367 12.6415C118.393 12.2068 119.522 12.0765 120.619 12.2663C121.717 12.456 122.737 12.9578 123.557 13.7116C123.82 13.9837 124.056 14.281 124.262 14.5993ZM66.5763 14.2831L65.713 15.0978C65.5042 14.9754 65.305 14.8371 65.1172 14.6844C63.9515 13.6977 62.4425 13.2129 60.9203 13.336C59.3981 13.459 57.9866 14.1799 56.9945 15.341C55.8993 16.6927 55.3231 18.3913 55.3699 20.1304C55.4167 21.8696 56.0835 23.5347 57.2499 24.8255C58.2717 25.8415 59.6211 26.4616 61.0575 26.5752C62.494 26.6888 63.9241 26.2885 65.0929 25.4457C65.3117 25.2998 65.5184 25.1052 65.7738 24.9106L66.552 25.6645C65.811 26.536 64.809 27.1457 63.6945 27.4034C62.0415 27.9352 60.253 27.8601 58.6505 27.1914C57.048 26.5228 55.7365 25.3045 54.9517 23.7555C54.0376 21.9623 53.8176 19.8948 54.3337 17.9493C54.8497 16.0039 56.0657 14.3174 57.7484 13.213C58.993 12.467 60.4317 12.109 61.8808 12.1848C63.3298 12.2606 64.7233 12.7668 65.8832 13.6386C66.0656 13.821 66.2602 14.0277 66.5763 14.2831ZM89.7648 27.6587H88.5488V12.2524H89.5216L89.7891 14.9884C90.3107 14.032 91.1117 13.2576 92.0851 12.7687C93.0586 12.2798 94.1581 12.0997 95.2367 12.2524C95.2367 12.4592 95.2367 12.5929 95.3096 12.7631C95.3217 12.9169 95.3217 13.0714 95.3096 13.2252C95.2245 13.2252 95.1759 13.3103 95.1394 13.3103C92.063 13.0671 90.7011 15.3167 90.1782 17.3352C89.9623 18.2273 89.8481 19.1411 89.8378 20.0589C89.8378 22.3571 89.8378 24.6431 89.8378 26.9291C89.8378 27.1602 89.8378 27.3791 89.8378 27.6709L89.7648 27.6587Z" fill="#74C947"/>
<path d="M15.1896 0.0927734C16.1773 0.519105 17.0649 1.14712 17.7957 1.93654C18.5265 2.72597 19.0843 3.65939 19.4333 4.67697C21.2451 5.10255 22.9839 5.41871 24.6498 5.89293C27.6545 6.73556 30.2246 8.69252 31.8362 11.3648C33.022 13.154 33.4586 15.337 33.0521 17.4446C33.042 17.6533 32.9889 17.8576 32.8962 18.0449C32.8036 18.2321 32.6733 18.3983 32.5135 18.5329C32.3538 18.6675 32.168 18.7678 31.9678 18.8274C31.7675 18.8871 31.5572 18.9048 31.3498 18.8795H2.16659C2.00471 18.8922 1.84208 18.8922 1.6802 18.8795C1.32286 18.65 1.02588 18.338 0.81427 17.9698C0.60266 17.6016 0.482612 17.188 0.464233 16.7637C0.473064 15.6825 0.624335 14.6073 0.914141 13.5657C1.47654 11.8418 2.46825 10.2894 3.79598 9.05444C6.05738 6.93888 8.90593 5.557 11.9673 5.09039C12.9522 4.95664 13.9736 4.77424 14.9464 4.61617C15.2327 3.87308 15.3293 3.07035 15.2274 2.28056C15.1255 1.49077 14.8283 0.738843 14.3627 0.0927734H15.1896ZM2.58001 20.3508H31.2525C31.2525 21.2141 31.4227 22.0166 31.4106 22.7827C31.4584 26.1765 30.4654 29.5035 28.5652 32.3159C26.6553 34.9513 23.8416 36.791 20.6614 37.4837C19.5728 37.6917 18.5844 38.2564 17.8525 39.0888C17.5933 39.3435 17.3126 39.5754 17.0135 39.7819C16.5697 39.5329 16.1609 39.2263 15.7976 38.8699C15.2314 38.1685 14.4174 37.7114 13.5237 37.5932C11.5546 37.23 9.69475 36.421 8.08659 35.228C6.47844 34.0351 5.16466 32.4899 4.24589 30.7108C3.12995 28.468 2.52765 26.0048 2.48274 23.5001C2.45842 22.4787 2.5557 21.4451 2.58001 20.3508Z" fill="#74C947"/>
</svg>
