<svg width="598" height="122" viewBox="0 0 598 122" fill="none" xmlns="http://www.w3.org/2000/svg">
<g clip-path="url(#clip0_191_2)">
<path fill-rule="evenodd" clip-rule="evenodd" d="M54.737 6.075C41.944 6.075 31.532 10.44 19.52 17.747V0C19.52 0 15.107 2.618 10.489 6.543C5.05 11.166 0 17.212 0 17.212V60.997C0 91.471 25.323 116.433 55.798 116.433C57.47 116.433 59.242 116.346 60.877 116.2C64.172 114.721 69.075 111.74 71.67 106.308C73.998 101.437 74.593 95.706 74.717 92.533C69.492 95.496 63.471 97.196 57.035 97.196C37.184 97.196 21.1 81.104 21.1 61.254C21.1 41.404 37.195 25.312 57.046 25.312C76.896 25.312 93.241 41.405 92.99 61.254C92.956 63.954 92.423 83.784 92.485 93.323C92.51 97.275 91.916 100.91 91.013 103.719C103.2 93.598 110.439 78.333 110.439 61.254C110.439 30.779 85.211 6.075 54.737 6.075ZM39.332 61.76C39.332 71.825 47.491 79.984 57.556 79.984C67.621 79.984 75.78 71.825 75.78 61.76C75.78 51.695 67.621 43.536 57.556 43.536C47.491 43.536 39.332 51.695 39.332 61.76Z" fill="#FF9A1F"/>
<path d="M167.741 86.559C177.513 86.559 184.564 77.406 184.564 64.912C184.564 52.172 177.884 43.142 168.236 43.142C157.722 43.142 150.177 52.295 150.177 65.036C150.177 77.281 157.722 86.559 167.741 86.559ZM138.673 10.692L149.929 6.15799V38.071C149.929 40.916 149.929 40.916 149.805 43.019C149.682 43.266 149.853 43.044 149.558 43.996C151.278 38.441 160.814 33.618 170.463 33.618C186.171 33.618 196.438 45.74 196.438 64.417C196.438 83.59 186.171 96.083 170.215 96.083C160.938 96.083 153.269 93.126 149.435 85.951V95.217H138.673V10.692Z" fill="#071D25"/>
<path d="M223.362 87.178C230.041 87.177 235.731 83.837 238.329 78.394C239.689 75.551 240.184 72.705 240.184 66.643C238.081 66.397 236.474 66.273 234.123 66.273C219.28 66.273 211.735 70.108 211.735 77.777C211.735 83.343 216.558 87.178 223.362 87.178ZM231.526 57.986C233.876 57.986 236.102 58.109 239.937 58.357C239.813 47.966 234.989 43.142 224.846 43.142C218.29 43.142 208.523 44.361 202.338 48.566L201.765 39.164C208.444 35.329 219.28 33.619 226.702 33.619C237.216 33.619 245.009 37.7 248.348 44.751C250.203 48.585 250.822 53.038 250.822 62.068V74.685C250.822 84.085 251.069 90.518 251.44 95.217H241.174C241.05 92.868 241.05 91.755 241.05 90.394C241.05 89.034 241.05 88.538 241.174 84.827C236.597 92.496 230.165 96.083 220.888 96.083C208.148 96.083 199.86 88.909 199.86 77.9C199.86 65.16 211.24 57.986 231.526 57.986Z" fill="#071D25"/>
<path d="M262.487 70.849V43.513H254.458C254.458 43.513 254.152 41.609 252.929 39.316C251.706 37.023 248.509 34.731 248.509 34.731H262.487V21.125L273.743 17.29V34.731H289.7V43.513H273.743V67.509C273.743 73.818 273.867 77.034 274.362 79.384C275.227 83.838 278.691 86.435 283.639 86.435C285.988 86.435 287.968 85.94 290.937 84.579V94.227C286.855 95.464 283.762 95.959 280.546 95.959C273.248 95.959 267.558 93.114 264.837 88.043C263.105 84.703 262.487 80.374 262.487 70.849Z" fill="#071D25"/>
<path d="M342.076 10.692L353.332 6.15799V34.978C353.332 39.183 353.208 42.523 352.962 44.503C357.167 37.328 363.97 33.618 373.123 33.618C383.019 33.618 390.317 38.318 393.533 46.606C395.141 50.811 395.76 55.512 395.76 63.428V95.217H384.503V68.994C384.503 59.84 384.256 56.253 383.389 53.161C381.658 46.606 377.205 43.142 370.773 43.142C363.351 43.142 357.043 47.966 354.693 55.512C353.579 58.975 353.332 62.191 353.332 71.22V95.217H342.076V10.692Z" fill="#071D25"/>
<path d="M298.755 43.964C304.339 37.76 313.025 34.037 321.711 34.037C326.427 34.037 331.391 34.906 335.485 36.519L334.741 46.446C331.391 44.461 327.916 43.592 323.696 43.592C311.66 43.592 303.222 52.402 303.222 64.687C303.222 77.716 311.536 86.65 323.448 86.65C328.164 86.65 331.514 85.658 336.106 82.804L336.974 93.103C332.631 95.212 327.916 96.206 322.083 96.206C303.594 96.206 291.31 83.796 291.31 65.183C291.31 56.745 293.79 49.548 298.755 43.964Z" fill="#071D25"/>
<path d="M449.491 64.294C449.491 53.532 442.985 45.987 433.904 45.987C424.958 45.987 419.266 52.914 419.266 63.676C419.266 74.932 425.093 82.353 434.04 82.353C442.849 82.353 449.491 74.56 449.491 64.294ZM431.679 108.453C439.347 108.453 445.409 105.236 448.13 99.547C449.614 96.578 449.861 94.351 450.357 82.971C446.026 90.887 438.852 95.217 429.699 95.217C414.856 95.217 405.455 83.095 405.455 63.923C405.455 44.503 414.98 32.876 431.06 32.876C439.966 32.876 446.151 36.587 449.861 44.008L450.108 34.113H465.2V87.796C465.2 100.289 463.344 106.844 458.025 112.534C452.582 118.225 443.923 121.317 433.41 121.317C426.112 121.317 419.804 120.08 411.887 116.988L413.125 103.258C420.545 107.092 425.493 108.453 431.679 108.453Z" fill="#5C6970"/>
<path d="M513.376 58.603C513.252 49.079 508.429 43.513 500.513 43.513C492.842 43.513 487.648 49.202 486.658 58.603H513.376ZM500.884 32.381C517.953 32.381 528.467 43.884 528.467 62.685C528.467 63.922 528.343 67.015 528.096 69.612H486.906C487.648 79.137 494.575 85.075 504.965 85.075C511.273 85.075 516.469 83.342 527.888 76.515L528.135 90.246C518.077 95.341 511.026 96.825 503.11 96.825C483.072 96.825 471.321 84.95 471.321 64.417C471.321 44.874 482.823 32.381 500.884 32.381Z" fill="#5C6970"/>
<path d="M566.211 85.075C575.975 85.075 582.797 76.787 582.797 65.036C582.797 52.543 576.109 44.132 566.211 44.132C556.446 44.132 549.624 52.543 549.624 64.417C549.624 76.787 556.313 85.075 566.211 85.075ZM566.211 32.381C585.383 32.381 598 45.369 598 65.284C598 84.085 585.135 96.825 566.087 96.825C547.161 96.825 534.421 83.838 534.421 64.417C534.421 45.245 547.161 32.381 566.211 32.381Z" fill="#5C6970"/>
</g>
<defs>
<clipPath id="clip0_191_2">
<rect width="598" height="122" fill="white"/>
</clipPath>
</defs>
</svg>
