<svg width="164" height="43" viewBox="0 0 164 43" fill="none" xmlns="http://www.w3.org/2000/svg">
<path d="M24.4235 1.17858L23.0624 8.69926H10.4896V17.1959H21.7564V24.487H10.4896V33.5577H23.0624L24.2602 41.0784H0.420166V1.17858H24.4235Z" fill="#2993FA"/>
<path d="M61.1454 9.44559C63.3951 9.44559 65.2094 10.2685 66.5883 11.9142C67.9672 13.5217 68.6566 15.7607 68.6566 18.6312V41.0784H58.9682V20.4683C58.9682 18.0953 58.3151 16.9089 57.0088 16.9089C55.6662 16.9089 54.4324 18.0762 53.3076 20.4109V41.0784H43.6192V20.4683C43.6192 18.0953 42.966 16.9089 41.6597 16.9089C40.3171 16.9089 39.0834 18.0762 37.9585 20.4109V41.0784H28.2701V10.479H36.7066L37.4142 13.8661C38.5391 12.3735 39.7728 11.2636 41.1154 10.5364C42.4943 9.80918 44.0727 9.44559 45.8508 9.44559C47.3748 9.44559 48.7174 9.84746 49.8785 10.6512C51.0397 11.4167 51.9106 12.5457 52.4911 14.0384C53.6886 12.4692 54.9767 11.321 56.3556 10.5938C57.7345 9.82832 59.3311 9.44559 61.1454 9.44559Z" fill="#2993FA"/>
<path d="M91.4527 9.44559C94.8999 9.44559 97.5488 10.8808 99.3994 13.7513C101.25 16.6218 102.175 20.6405 102.175 25.8074C102.175 28.9458 101.704 31.7589 100.76 34.2466C99.853 36.6961 98.5285 38.6289 96.7868 40.045C95.0451 41.4228 92.9767 42.1118 90.5819 42.1118C88.9853 42.1118 87.5338 41.7673 86.2275 41.0784C84.9575 40.4277 83.8871 39.49 83.0162 38.2653L82.6352 41.0784H74.0353V1.27842L83.7238 0.111755V13.4643C84.5583 12.2395 85.6651 11.2636 87.044 10.5364C88.4228 9.80918 89.8924 9.44559 91.4527 9.44559ZM87.6971 34.7633C89.1123 34.7633 90.2008 34.0744 90.9629 32.6966C91.7612 31.3187 92.1603 29.0223 92.1603 25.8074C92.1603 22.3628 91.7974 20.009 91.0717 18.746C90.3823 17.483 89.3844 16.8515 88.0781 16.8515C86.3726 16.8515 84.9212 17.9231 83.7238 20.0664V32.1799C84.7035 33.9022 86.0279 34.7633 87.6971 34.7633Z" fill="#2993FA"/>
<path d="M132.855 25.2907C132.855 25.5203 132.8 26.6685 132.691 28.7353H114.947C115.201 31.0699 115.818 32.6774 116.798 33.5577C117.814 34.3997 119.247 34.8207 121.098 34.8207C122.187 34.8207 123.257 34.6102 124.309 34.1892C125.398 33.7299 126.577 33.041 127.847 32.1225L131.766 37.7486C130.242 39.0882 128.5 40.1598 126.541 40.9636C124.581 41.729 122.459 42.1118 120.173 42.1118C115.238 42.1118 111.482 40.6574 108.906 37.7486C106.366 34.8016 105.096 30.8594 105.096 25.9222C105.096 22.8221 105.622 20.0281 106.674 17.5404C107.763 15.0526 109.359 13.0815 111.464 11.6272C113.569 10.1728 116.109 9.44559 119.084 9.44559C123.33 9.44559 126.686 10.8426 129.154 13.6365C131.621 16.3922 132.855 20.2769 132.855 25.2907ZM123.33 22.4202C123.293 20.3917 122.967 18.8225 122.35 17.7126C121.733 16.6027 120.699 16.0477 119.247 16.0477C117.905 16.0477 116.889 16.5453 116.199 17.5404C115.51 18.5355 115.074 20.2769 114.893 22.7647H123.33V22.4202Z" fill="#2993FA"/>
<path d="M163.754 1.28367V41.0784H155.154L154.773 37.6912C153.902 38.9925 152.777 40.0641 151.398 40.9062C150.055 41.7099 148.441 42.1118 146.554 42.1118C142.925 42.1118 140.186 40.6574 138.335 37.7486C136.484 34.8398 135.559 30.8212 135.559 25.6926C135.559 22.5542 136.049 19.7602 137.029 17.3107C138.045 14.823 139.46 12.8902 141.274 11.5123C143.089 10.1345 145.175 9.44559 147.534 9.44559C150.146 9.44559 152.323 10.3259 154.065 12.0864V0.117005L163.754 1.28367ZM149.711 34.7633C151.452 34.7633 152.904 33.7491 154.065 31.7206V18.9182C153.448 18.191 152.85 17.6552 152.269 17.3107C151.688 16.9663 151.017 16.794 150.255 16.794C148.804 16.794 147.642 17.5212 146.772 18.9756C145.937 20.3917 145.52 22.6498 145.52 25.75C145.52 29.1946 145.883 31.5675 146.608 32.8688C147.334 34.1318 148.368 34.7633 149.711 34.7633Z" fill="#2993FA"/>
</svg>
