<svg width="211" height="43" viewBox="0 0 211 43" fill="none" xmlns="http://www.w3.org/2000/svg">
<path fill-rule="evenodd" clip-rule="evenodd" d="M66.2182 39.4968C66.2182 39.9001 66.0511 40.1625 65.7414 40.3304C65.1205 40.6873 63.8785 40.8332 63.0204 40.8332C60.8208 40.8332 58.6482 40.1161 56.7633 38.2751C55.928 37.4676 54.2321 35.0267 54.2321 31.6636C54.2321 28.8658 55.2092 26.6991 56.5946 25.5989C58.4111 24.1645 60.2007 24.0228 61.7076 24.0228C64.7855 24.0228 66.721 25.0471 67.3192 25.9566C67.6786 26.5287 67.7959 27.1977 67.8204 27.5327C67.8457 27.7462 67.8693 27.8896 67.9891 27.8896C68.1554 27.8896 68.2001 27.7715 68.2001 27.3909C68.2001 24.9964 68.3688 24.3333 68.3688 23.9992C68.3688 23.9013 68.3241 23.8076 68.0803 23.7857C67.4837 23.7604 66.6459 23.6659 66.1447 23.5478C65.6942 23.4524 63.9983 23.1386 62.4931 23.1386C60.6571 23.1386 58.2913 23.3073 56.1423 24.6438C54.0161 25.9811 52.154 28.6768 52.154 32.5014C52.154 35.4857 53.5394 38.0363 54.9949 39.3061C57.6484 41.6204 61.0385 41.8584 62.85 41.8584C64.2379 41.8584 66.3818 41.5968 67.9124 40.7826C68.1975 40.6164 68.222 40.5717 68.222 39.4968V36.8205C68.222 35.8181 68.222 35.1026 68.2693 34.3399C68.3174 33.5012 68.5063 33.0954 69.1535 32.9739C69.4404 32.9292 69.5838 32.903 69.75 32.903C69.847 32.903 69.9407 32.8583 69.9407 32.7596C69.9407 32.6212 69.8226 32.5723 69.5593 32.5723C68.8413 32.5723 67.3378 32.6415 67.2197 32.6415C67.1024 32.6415 65.5972 32.5723 64.5197 32.5723C64.2582 32.5723 64.1384 32.6187 64.1384 32.7587C64.1384 32.8583 64.2354 32.9022 64.3307 32.9022C64.5442 32.9022 64.9517 32.9292 65.1407 32.9739C66.0983 33.238 66.2139 33.5012 66.2139 35.4393V39.4968H66.2182ZM73.3038 39.2647C72.9325 40.2882 72.5225 41.0653 71.5792 41.1868C71.3825 41.2118 71.1844 41.2254 70.9861 41.2273C70.8831 41.2273 70.8038 41.272 70.8038 41.353C70.8038 41.4745 70.9253 41.515 71.1936 41.515C72.1529 41.515 73.2793 41.4559 73.5046 41.4559C73.729 41.4559 74.6082 41.515 75.1009 41.515C75.2832 41.515 75.4072 41.4728 75.4072 41.353C75.4072 41.2737 75.3465 41.2264 75.2005 41.2264H74.998C74.6487 41.2264 74.2167 41.0408 74.2167 40.6366C74.2167 40.2679 74.3196 39.7786 74.5061 39.2656L75.732 35.6443C75.7742 35.538 75.8375 35.4756 75.9388 35.4756H80.3396C80.4409 35.4756 80.4831 35.5177 80.5253 35.603L82.4287 40.6366C82.5511 40.9615 82.4287 41.1437 82.3013 41.1868C82.2203 41.2112 82.1587 41.2475 82.1587 41.3302C82.1587 41.4542 82.384 41.4542 82.7746 41.4703C84.1837 41.5133 85.6788 41.5133 85.9876 41.5133C86.2103 41.5133 86.3976 41.4711 86.3976 41.3513C86.3976 41.2475 86.3158 41.2247 86.1901 41.2247C85.9859 41.2247 85.6771 41.2087 85.3725 41.1032C84.9422 40.9775 84.3499 40.6527 83.6142 38.8311C82.3654 35.7211 79.1542 27.2686 78.842 26.4915C78.5982 25.857 78.5155 25.7575 78.394 25.7575C78.2675 25.7575 78.1864 25.8815 77.9435 26.5531L73.3029 39.2656L73.3038 39.2647ZM76.164 34.7407C76.1075 34.7407 76.0628 34.6985 76.1075 34.5972L77.9063 29.0725C78.0076 28.7645 78.1088 28.7645 78.2134 29.0725L80.1566 34.5972C80.1768 34.6799 80.1768 34.7407 80.0772 34.7407H76.164ZM91.2862 26.9244L93.938 26.9665C95.9579 27.0054 96.4439 27.4778 96.5283 28.0887L96.5468 28.3165C96.5671 28.6017 96.611 28.6624 96.7181 28.6624C96.8008 28.6624 96.8616 28.5781 96.8616 28.3967C96.8616 28.1714 96.924 26.7598 96.924 26.1448C96.924 26.0233 96.924 25.9018 96.8202 25.9018C96.7325 25.9018 96.5443 25.9423 96.2296 26.003C95.8938 26.0452 95.4095 26.1043 94.7328 26.1043H86.8414C86.5908 26.1043 85.7893 26.0638 85.1776 26.003C84.6123 25.9608 84.3997 25.7592 84.2554 25.7592C84.1719 25.7592 84.0883 26.0249 84.0402 26.1448C84.0006 26.3076 83.5796 28.0701 83.5796 28.2752C83.5796 28.3992 83.6218 28.4599 83.6833 28.4599C83.7677 28.4599 83.8344 28.4195 83.8968 28.2532C83.9567 28.1132 84.02 27.9647 84.2554 27.6204C84.5912 27.1269 85.0924 26.9851 86.3985 26.9665L89.516 26.9244V35.5827C89.516 37.5452 89.516 39.1618 89.4097 40.0224C89.3262 40.6147 89.2224 41.067 88.798 41.1463C88.6082 41.1884 88.3585 41.2289 88.1686 41.2289C88.0387 41.2289 87.9999 41.2922 87.9999 41.3555C87.9999 41.477 88.1053 41.5175 88.3348 41.5175C88.9693 41.5175 90.2923 41.4584 90.3952 41.4584C90.5032 41.4584 91.8304 41.5175 92.9821 41.5175C93.2183 41.5175 93.3246 41.4584 93.3246 41.3547C93.3246 41.2939 93.2808 41.2289 93.1517 41.2289C92.9661 41.2289 92.4986 41.1884 92.2084 41.1463C91.5756 41.067 91.449 40.6147 91.3857 40.0224C91.282 39.1618 91.282 37.5452 91.282 35.5827V26.9244H91.2862ZM100.854 35.581C100.854 37.5427 100.854 39.1601 100.75 40.0199C100.667 40.6105 100.566 41.0653 100.158 41.1437C99.9572 41.1923 99.7519 41.2203 99.5455 41.2273C99.4214 41.2273 99.3809 41.2897 99.3809 41.353C99.3809 41.4745 99.4822 41.515 99.7058 41.515C100.015 41.515 100.482 41.4947 100.895 41.4728C101.322 41.4728 101.671 41.4542 101.712 41.4542C102.306 41.4542 103.676 41.574 106.766 41.574C107.569 41.574 107.728 41.574 107.867 41.0408C107.973 40.6105 108.135 39.2226 108.135 39.058C108.135 38.9163 108.135 38.7501 108.016 38.7501C107.912 38.7501 107.867 38.8336 107.828 39.058C107.687 39.8967 107.441 40.3068 106.91 40.5354C106.378 40.7565 105.475 40.7565 104.944 40.7565C102.939 40.7565 102.633 40.4907 102.57 39.0808C102.552 38.6488 102.57 36.2771 102.57 35.581V33.7754C102.57 33.6961 102.608 33.632 102.71 33.632C103.063 33.632 105.088 33.6742 105.635 33.7392C106.439 33.8176 106.622 34.1669 106.703 34.4546C106.784 34.7246 106.784 34.9238 106.784 35.1288C106.784 35.2317 106.824 35.3169 106.924 35.3169C107.067 35.3169 107.067 35.09 107.067 34.9254C107.067 34.7795 107.11 34.0286 107.149 33.6151C107.214 32.9402 107.314 32.5942 107.314 32.4727C107.314 32.3512 107.275 32.3107 107.214 32.3107C107.131 32.3107 107.048 32.4137 106.905 32.5765C106.721 32.7832 106.437 32.8195 105.943 32.8625C105.471 32.9047 102.953 32.9047 102.69 32.9047C102.586 32.9047 102.566 32.8423 102.566 32.6997V27.0543C102.566 26.9117 102.605 26.8467 102.69 26.8467C102.917 26.8467 105.145 26.867 105.491 26.91C106.599 27.0315 106.804 27.2754 106.948 27.6061C107.05 27.8491 107.07 28.1967 107.07 28.3401C107.07 28.5064 107.112 28.6059 107.236 28.6059C107.315 28.6059 107.358 28.4844 107.379 28.3849C107.419 28.1351 107.457 27.2365 107.477 27.0315C107.541 26.4595 107.644 26.2123 107.644 26.068C107.644 25.9642 107.619 25.8857 107.565 25.8857C107.457 25.8857 107.379 25.9642 107.277 25.9844C107.11 26.0266 106.784 26.068 106.392 26.0882C105.926 26.1085 101.852 26.1085 101.705 26.1085C101.6 26.1085 100.312 26.0494 99.3911 26.0494C99.17 26.0494 99.0645 26.0899 99.0645 26.2123C99.0645 26.2907 99.1455 26.3338 99.2282 26.3338C99.4155 26.3338 99.7623 26.3582 99.9285 26.3962C100.602 26.5405 100.76 26.867 100.807 27.5656C100.847 28.2186 100.847 28.7907 100.847 31.9817V35.581H100.854ZM114.822 41.8035C115.968 41.8035 117.121 41.5555 118.035 40.9387C119.501 39.9406 119.843 38.3805 119.843 37.5427C119.843 35.9075 119.247 34.6403 116.731 32.7343L116.142 32.2863C114.136 30.7102 113.547 30.0082 113.547 28.8472C113.547 27.3564 114.693 26.4738 116.159 26.4738C118.122 26.4738 118.694 27.3344 118.816 27.5572C118.949 27.7824 119.075 28.3359 119.099 28.5798C119.124 28.7443 119.147 28.8472 119.268 28.8472C119.379 28.8472 119.42 28.7055 119.42 28.3806C119.42 26.9851 119.501 26.3093 119.501 26.2055C119.501 26.1043 119.459 26.0663 119.29 26.0663C119.122 26.0663 118.949 26.0452 118.544 25.9625C118.012 25.8385 117.398 25.76 116.563 25.76C113.864 25.76 112.161 27.2509 112.161 29.442C112.161 30.8342 112.667 32.1015 114.927 33.8792L115.883 34.642C117.717 36.0906 118.334 36.9082 118.334 38.3223C118.334 39.6326 117.329 41.0408 115.29 41.0408C113.864 41.0408 112.459 40.4747 112.136 38.9568C112.077 38.6708 112.077 38.383 112.077 38.2C112.077 38.0363 112.055 37.973 111.925 37.973C111.822 37.973 111.781 38.0802 111.756 38.3037C111.735 38.6303 111.652 39.4461 111.652 40.4747C111.652 41.0239 111.673 41.1075 111.969 41.2492C112.838 41.655 113.826 41.8035 114.822 41.8035ZM133.466 31.7809C133.723 31.6028 133.761 31.3489 133.637 31.1599H131.481C131.946 29.7357 132.29 28.3806 133.103 27.2551C133.514 26.6864 133.944 26.3523 134.445 26.3523C134.898 26.3523 135.447 26.6544 135.501 27.6601C135.518 27.7799 135.586 27.9301 135.741 27.9301C136.019 27.9301 136.481 27.4112 136.481 26.8898C136.481 26.2156 135.79 25.782 135.067 25.782C134.053 25.782 133.036 26.1836 132.168 27.1758C131.154 28.3486 130.701 29.6547 130.253 31.1624H128.777C128.546 31.3143 128.474 31.6349 128.651 31.7834H130.082C129.255 34.5196 128.684 37.4009 127.803 40.203C127.444 41.3412 127.032 41.5951 126.718 41.5951C126.372 41.5951 125.923 41.3614 125.687 40.9699C125.545 40.7548 125.426 40.6206 125.182 40.8231C125.063 40.9066 124.861 41.0526 124.861 41.4281C124.861 41.7124 125.181 42.2819 125.977 42.2819C126.995 42.2819 127.734 41.6272 127.939 41.4281C128.304 41.1075 128.825 40.1844 129.305 38.6775C129.875 36.8348 130.374 34.9727 130.927 33.1097C131.077 32.6111 131.221 32.0694 131.321 31.7851H133.467V31.7809H133.466ZM139.575 30.9312C138.889 30.9312 138.136 31.1801 137.259 32.0205C136.121 33.1055 135.501 34.7348 135.433 35.7751C135.334 37.2145 136.038 38.0076 137.109 38.0076C137.568 38.0076 138.465 37.9198 139.505 36.8492C140.752 35.5751 141.236 33.9636 141.285 33.0406C141.354 31.8214 140.768 30.9312 139.575 30.9312ZM139.465 31.4324C140.047 31.4324 140.147 32.0205 140.131 32.5377C140.098 33.4261 139.31 35.6376 138.568 36.6281C138.032 37.3478 137.613 37.5022 137.249 37.5022C136.758 37.5022 136.525 37.0154 136.564 36.4307C136.606 35.5422 137.262 33.546 138.236 32.2373C138.718 31.5843 139.124 31.4324 139.465 31.4324ZM146.588 31.4324C146.691 31.1439 146.291 30.9312 146.061 30.9312C145.244 30.9312 143.497 32.2517 143.048 32.9191C143.031 33.0709 143.168 33.2059 143.345 33.1722C143.761 32.7528 144.668 32.0205 145.001 32.0205C145.141 32.0205 145.122 32.1867 145.001 32.5031L143.398 36.5808C143.1 37.3132 143.187 38.0051 143.9 38.0051C144.839 38.0051 147.004 35.8569 148.263 34.3331L148.295 34.35L147.107 37.4153C147.004 37.6811 147.268 38.0059 147.544 38.0059C148.477 38.0059 150.141 36.6812 150.597 35.873C150.58 35.6747 150.437 35.6072 150.281 35.6376C149.828 36.1607 148.91 36.9487 148.578 36.9487C148.401 36.9487 148.418 36.7479 148.509 36.5285C149.239 34.5382 150.372 31.7809 150.545 31.3328C150.479 31.1304 150.055 30.9616 149.693 31.0291C149.12 32.0509 148.208 33.9965 146.621 35.5059C145.715 36.3598 145.018 36.8956 144.759 36.8956C144.565 36.8956 144.474 36.7293 144.639 36.3303L146.588 31.4324ZM156.544 31.6189C156.699 31.2291 156.512 30.9312 156.108 30.9312C155.273 30.9312 154.246 31.6189 153.613 32.4888C153.596 32.6212 153.676 32.7385 153.816 32.7385C154.366 32.2559 154.954 31.9049 155.341 31.9049C155.475 31.9049 155.475 32.0669 155.392 32.2863C155.305 32.5233 153.53 37.3486 153.446 37.5688C153.293 37.9511 153.742 38.0076 153.93 38.0076C154.08 38.0076 154.151 37.9527 154.23 37.8009C155.22 35.9582 155.909 34.6521 156.803 33.5443C157.714 32.39 158.711 31.5514 159.109 31.5514C159.362 31.5514 159.383 31.753 159.383 31.9513C159.383 32.2863 159.162 32.8727 159.03 33.1747C158.642 34.0125 158.022 35.6578 157.671 36.4796C157.317 37.3149 157.267 37.4372 157.267 37.5849C157.267 37.7865 157.52 38.0067 157.671 38.0067C158.59 38.0067 159.917 37.2018 160.557 36.1252C160.557 35.9928 160.519 35.8586 160.281 35.8932C159.803 36.4796 158.993 37.0356 158.714 37.0356C158.59 37.0356 158.608 36.8837 158.673 36.715C158.727 36.5851 159.929 33.848 160.235 33.011C160.373 32.6254 160.505 32.1082 160.505 31.8382C160.505 31.2839 160.216 30.9354 159.566 30.9354C158.305 30.9354 156.648 32.7773 155.461 34.5888L155.41 34.5567L156.544 31.6189ZM169.066 31.4518C168.886 31.0974 168.478 30.9312 168.212 30.9312C167.409 30.9312 166.349 31.3978 165.21 32.4204C163.887 33.6092 162.984 35.6072 162.984 36.7943C162.984 37.4659 163.331 38.0051 163.984 38.0051C165.609 38.0051 166.875 36.3783 168.026 34.8343L168.088 34.8487L167.506 36.5108C167.34 36.9951 167.287 37.2626 167.287 37.4659C167.287 37.7359 167.472 38.0059 167.825 38.0059C168.701 38.0059 170.219 36.6256 170.675 35.7067C170.661 35.5549 170.578 35.4899 170.424 35.4899C169.901 36.1429 168.847 36.9968 168.581 36.9968C168.432 36.9968 168.411 36.8306 168.478 36.6121C168.633 36.1084 169.417 33.4287 171.077 28.8472C171.58 27.4593 171.834 26.8223 172.131 25.8815L172.065 25.782C171.349 25.7651 170.414 25.9844 170.087 26.1C170.02 26.165 169.999 26.2671 170.037 26.3321L170.424 26.6037C170.661 26.7556 170.61 27.0577 170.274 27.9959L169.067 31.4527L169.066 31.4518ZM168.178 31.4324C168.598 31.4324 168.816 31.9336 168.614 32.6373C168.368 33.5257 167.873 34.5382 166.573 35.8755C165.413 37.0618 164.561 37.3689 164.307 37.3689C164.157 37.3689 163.986 37.2145 163.986 37.0137C163.986 36.796 163.986 36.4939 164.508 35.4224C165.025 34.3661 166.23 32.7731 166.904 32.1521C167.342 31.753 167.79 31.4324 168.178 31.4324ZM178.828 31.6189C178.747 31.4743 178.631 31.3522 178.491 31.2637C178.369 31.1956 178.231 31.1594 178.092 31.1582C177.655 31.1582 177.231 31.2797 176.581 31.6476C175.892 32.0323 175.172 32.7039 174.367 33.8075C173.257 35.3372 172.887 36.6787 172.887 37.0601C172.887 37.5326 173.157 38.0051 173.628 38.0051C174.413 38.0051 176.127 36.8466 177.316 35.3726L177.367 35.392L176.813 36.8939C176.683 37.2828 176.647 37.4355 176.647 37.5486C176.647 37.6785 176.75 38.0051 177.13 38.0051C178.053 38.0051 179.242 37.0601 179.952 36.1227C179.952 35.9911 179.828 35.9075 179.715 35.9075C178.763 36.7479 178.272 37.0339 177.985 37.0339C177.852 37.0339 177.769 36.9301 177.866 36.6458C178.406 35.1203 179.863 31.4155 180.117 30.7929C180.013 30.5802 179.577 30.4098 179.298 30.5482L178.828 31.6189ZM177.568 31.8011C178.004 31.8011 178.287 32.088 178.408 32.4061C178.138 33.3932 177.434 34.836 176.162 36.0257C175.207 36.8956 174.703 37.1124 174.534 37.1124C174.383 37.1124 174.283 36.9968 174.283 36.796C174.283 35.6097 175.306 33.4101 176.379 32.455C176.902 31.9842 177.168 31.8011 177.568 31.8011ZM187.323 31.7167C187.538 31.5927 187.645 31.2468 187.528 31.0738H185.697L186.185 29.3611C186.05 29.1872 185.714 29.1518 185.549 29.259L184.608 30.9827L183.266 31.2257C183.103 31.2949 183.048 31.5396 183.086 31.7125H184.387L182.819 36.526C182.652 37.0466 182.581 37.2896 182.581 37.5199C182.581 37.7283 182.798 37.9941 183.038 37.9941C183.74 37.9941 185.316 36.9242 186.251 35.4857C186.292 35.2764 186.189 35.171 186.022 35.171C185.47 35.8291 184.362 36.7369 184.113 36.7369C183.975 36.7369 183.896 36.6315 183.989 36.3041L185.503 31.7142H187.323V31.7167ZM188.652 37.3984C188.615 37.4729 188.602 37.5573 188.616 37.6394C188.629 37.7215 188.668 37.7972 188.728 37.8557C188.816 37.9527 188.922 38.0076 189.011 38.0076C190.249 38.0076 192.092 36.4956 192.355 36.0071C192.355 35.8611 192.266 35.7413 192.093 35.727C191.485 36.38 190.532 36.9647 190.232 36.9647C190.087 36.9647 190.105 36.7639 190.175 36.5952L192.309 31.834C192.525 31.3489 192.525 31.197 192.416 31.0974C192.34 31.0283 192.251 30.9312 192.125 30.9312C191.539 30.9312 190.163 31.5514 189.177 32.6043C189.139 32.7368 189.245 32.8727 189.409 32.8912C190.301 32.201 190.773 32.0019 190.894 32.0019C191.018 32.0019 191.018 32.1344 190.933 32.3225L188.652 37.3984ZM192.59 26.9058C191.893 26.9058 191.623 27.596 191.623 27.963C191.623 28.2634 191.805 28.5975 192.266 28.5975C192.824 28.5975 193.216 28.0642 193.216 27.5428C193.216 27.1758 193.002 26.9058 192.59 26.9058ZM199.615 30.9312C198.925 30.9312 198.169 31.1801 197.298 32.0205C196.156 33.1055 195.537 34.7348 195.47 35.7751C195.371 37.2145 196.073 38.0076 197.15 38.0076C197.603 38.0076 198.506 37.9198 199.544 36.8492C200.788 35.5751 201.271 33.9636 201.324 33.0406C201.39 31.8214 200.801 30.9312 199.615 30.9312ZM199.495 31.4324C200.086 31.4324 200.183 32.0205 200.167 32.5377C200.131 33.4261 199.343 35.6376 198.609 36.6281C198.074 37.3478 197.653 37.5022 197.278 37.5022C196.799 37.5022 196.564 37.0154 196.596 36.4307C196.643 35.5422 197.3 33.546 198.272 32.2373C198.759 31.5843 199.159 31.4324 199.495 31.4324ZM206.355 31.6189C206.513 31.2291 206.319 30.9312 205.908 30.9312C205.036 30.9312 203.97 31.6189 203.304 32.4888C203.287 32.6212 203.377 32.7385 203.515 32.7385C204.09 32.2559 204.705 31.9049 205.105 31.9049C205.239 31.9049 205.239 32.0669 205.154 32.2863C205.067 32.5233 203.217 37.3486 203.131 37.5688C202.974 37.9511 203.443 38.0076 203.637 38.0076C203.797 38.0076 203.862 37.9527 203.949 37.8009C204.979 35.9582 205.692 34.6521 206.618 33.5443C207.577 32.39 208.61 31.5514 209.028 31.5514C209.288 31.5514 209.305 31.753 209.305 31.9513C209.305 32.2863 209.081 32.8727 208.937 33.1747C208.538 34.0125 207.895 35.6578 207.528 36.4796C207.161 37.3149 207.107 37.4372 207.107 37.5849C207.107 37.7865 207.367 38.0067 207.528 38.0067C208.488 38.0067 209.863 37.2018 210.528 36.1252C210.528 35.9928 210.488 35.8586 210.248 35.8932C209.737 36.4796 208.906 37.0356 208.613 37.0356C208.488 37.0356 208.505 36.8837 208.57 36.715C208.623 36.5851 209.88 33.848 210.195 33.011C210.334 32.6254 210.476 32.1082 210.476 31.8382C210.476 31.2839 210.174 30.9354 209.494 30.9354C208.192 30.9354 206.465 32.7773 205.225 34.5888L205.173 34.5567L206.354 31.6189H206.355ZM2.6828 12.1473C2.6828 14.4903 2.6828 16.4191 2.5613 17.4459C2.46174 18.153 2.34025 18.6921 1.84582 18.7849C1.62476 18.8355 1.33114 18.8845 1.10671 18.8845C0.963279 18.8845 0.910968 18.957 0.910968 19.0321C0.910968 19.1756 1.03415 19.2253 1.3033 19.2253C2.04156 19.2253 3.58812 19.1528 3.70962 19.1528C3.90789 19.1528 6.41124 19.2996 6.97738 19.2996C11.1758 19.2996 13.2395 16.5887 13.2395 13.9782C13.2395 11.1222 10.8088 9.39082 8.99052 8.83059C10.1447 7.63249 11.2964 6.43524 11.2964 4.43391C11.2964 3.21472 10.4122 0.773815 6.38424 0.773815C5.25533 0.773815 4.30023 0.846376 3.70962 0.846376C3.58643 0.846376 2.03988 0.773815 0.936279 0.773815C0.662911 0.773815 0.543945 0.823596 0.543945 0.966186C0.543945 1.06743 0.641818 1.11553 0.739691 1.11553C0.960748 1.11553 1.37586 1.14084 1.57498 1.19062C2.38665 1.36021 2.58071 1.75254 2.62964 2.58024C2.67858 3.36153 2.67858 4.04158 2.67858 7.85186V12.1464L2.6828 12.1473ZM4.64531 1.84535C4.64531 1.70192 4.72125 1.62767 4.94146 1.57536C5.3338 1.47833 5.85185 1.45555 6.11847 1.45555C8.52647 1.45555 9.43432 3.629 9.43432 5.6531C9.43432 6.65292 9.0673 7.53209 8.55178 8.11679C8.0371 8.70403 7.69033 8.75381 6.31505 8.75381C5.40889 8.75381 4.96677 8.68293 4.81659 8.65678C4.69509 8.60616 4.64531 8.55891 4.64531 8.38679V1.84535ZM4.64531 9.58319C4.64531 9.45917 4.69594 9.41107 4.79381 9.41107C5.16083 9.41107 6.38846 9.41107 6.70739 9.45917C7.298 9.53341 7.91139 9.60429 8.74837 10.1679C10.6366 11.4622 11.1336 13.5842 11.1336 15.0506C11.1336 17.8087 8.99643 18.5183 7.66924 18.5183C7.22712 18.5183 6.17078 18.4702 5.50761 18.1504C4.74825 17.7834 4.74825 17.4434 4.67231 16.2444C4.647 15.8799 4.647 12.8543 4.647 10.9753V9.58319H4.64531ZM20.0636 9.68191C20.0636 6.49261 20.0636 5.92056 20.1092 5.2633C20.1505 4.54529 20.326 4.19851 20.9141 4.09642C21.1757 4.05424 21.3081 4.03567 21.4625 4.03567C21.5486 4.03567 21.6397 3.99349 21.6397 3.90996C21.6397 3.78846 21.5266 3.74796 21.2845 3.74796C20.6306 3.74796 19.2562 3.80871 19.1465 3.80871C19.0376 3.80871 17.6641 3.74796 16.9435 3.74796C16.703 3.74796 16.5951 3.79015 16.5951 3.90996C16.5951 3.99349 16.6811 4.03652 16.768 4.03652C16.9216 4.03652 17.2051 4.05592 17.443 4.11751C17.9281 4.22045 18.1441 4.56975 18.1872 5.2633C18.2327 5.91888 18.2327 6.49093 18.2327 9.68191V13.2829C18.2327 15.2471 18.2327 16.8663 18.123 17.7227C18.0361 18.3166 17.9281 18.7689 17.4902 18.8541C17.2744 18.8989 17.055 18.9249 16.8347 18.9317C16.703 18.9317 16.66 18.9942 16.66 19.0549C16.66 19.1789 16.7697 19.2177 17.0102 19.2177C17.6657 19.2177 19.0402 19.1587 19.1465 19.1587C19.2587 19.1587 20.6331 19.2177 21.8321 19.2177C22.0742 19.2177 22.1822 19.1587 22.1822 19.0549C22.1822 18.9958 22.1367 18.9317 22.0067 18.9317C21.8127 18.9317 21.3301 18.8912 21.0246 18.8541C20.3691 18.7697 20.2433 18.3166 20.1742 17.7227C20.0645 16.8637 20.0645 15.2455 20.0645 13.2829L20.0636 9.68191ZM28.8553 9.68191C28.8553 6.49261 28.8553 5.92056 28.9 5.2633C28.9439 4.54529 29.1126 4.19851 29.7285 4.09642C29.9842 4.05424 30.282 4.03567 30.4339 4.03567C30.5157 4.03567 30.6026 3.99349 30.6026 3.90996C30.6026 3.78846 30.4946 3.74796 30.2609 3.74796C29.6214 3.74796 28.0681 3.80871 27.9626 3.80871C27.8555 3.80871 26.5131 3.74796 25.558 3.74796C25.3251 3.74796 25.218 3.79015 25.218 3.90996C25.218 3.99349 25.3023 4.03652 25.3867 4.03652C25.5782 4.03652 25.9419 4.05592 26.1106 4.09642C26.8126 4.23901 26.9839 4.56722 27.0261 5.2633C27.07 5.91888 27.07 6.49093 27.07 9.68191V13.2829C27.07 15.2471 27.07 16.8663 26.9603 17.7227C26.8759 18.3166 26.7687 18.7689 26.3427 18.8541C26.1328 18.8989 25.9193 18.9249 25.7048 18.9317C25.5765 18.9317 25.5344 18.9942 25.5344 19.0549C25.5344 19.1789 25.6415 19.2177 25.8735 19.2177C26.1942 19.2177 26.6633 19.1992 27.0868 19.1772C27.5154 19.1772 27.8766 19.157 27.9609 19.157C29.1953 19.157 30.6001 19.2802 33.6645 19.2802C34.7926 19.2802 34.8542 19.1992 35.0061 18.7284C35.1765 18.1344 35.3242 16.9068 35.3242 16.6832C35.3242 16.4562 35.3014 16.3752 35.1934 16.3752C35.0694 16.3752 35.0246 16.479 35.0035 16.6427C34.9403 17.0308 34.7251 17.5421 34.4492 17.8703C33.9404 18.4626 33.0014 18.4829 31.8725 18.4829C30.2145 18.4829 29.6594 18.3411 29.3193 18.012C28.938 17.645 28.8511 16.3364 28.8511 13.326V9.68191H28.8553ZM40.611 9.68191C40.611 6.49261 40.611 5.92056 40.6532 5.2633C40.6962 4.54529 40.8565 4.19851 41.4513 4.09642C41.696 4.05424 41.9846 4.03567 42.1288 4.03567C42.2081 4.03567 42.2908 3.99349 42.2908 3.90996C42.2908 3.78846 42.1879 3.74796 41.9643 3.74796C41.3492 3.74796 39.8584 3.80871 39.7529 3.80871C39.6491 3.80871 38.3591 3.74796 37.4402 3.74796C37.215 3.74796 37.1112 3.79015 37.1112 3.90996C37.1112 3.99349 37.1947 4.03652 37.2757 4.03652C37.4605 4.03652 37.8073 4.05592 37.9735 4.09642C38.6476 4.23901 38.8113 4.56722 38.8543 5.2633C38.8948 5.91888 38.8948 6.49093 38.8948 9.68191V13.2829C38.8948 15.2471 38.8948 16.8663 38.7936 17.7227C38.71 18.3166 38.6079 18.7689 38.2013 18.8541C37.9985 18.8989 37.792 18.9249 37.5845 18.9317C37.4605 18.9317 37.4217 18.9942 37.4217 19.0549C37.4217 19.1789 37.5229 19.2177 37.7482 19.2177C38.0545 19.2177 38.5075 19.1992 38.9125 19.1772C39.3251 19.1772 39.6694 19.157 39.7529 19.157C40.94 19.157 42.2908 19.2802 45.2371 19.2802C46.3205 19.2802 46.3846 19.1992 46.5289 18.7284C46.6892 18.1344 46.8335 16.9068 46.8335 16.6832C46.8335 16.4562 46.8132 16.3752 46.7094 16.3752C46.5863 16.3752 46.5474 16.479 46.5272 16.6427C46.4664 17.0308 46.2597 17.5421 45.9914 17.8703C45.5021 18.4626 44.6018 18.4829 43.5168 18.4829C41.9196 18.4829 41.3864 18.3411 41.0615 18.012C40.692 17.645 40.6093 16.3364 40.6093 13.326V9.68191H40.611ZM54.3519 16.8916C55.561 16.8916 57.2881 16.3575 58.5014 14.9552C59.8303 13.4087 60.2116 11.6478 60.2623 11.1137C60.296 10.7762 60.3314 9.92406 60.3314 9.60344C60.8664 10.0472 61.4367 10.7214 61.522 10.8648C61.6131 11.0049 61.7472 11.0926 61.9379 10.9694C62.2484 10.7737 62.9403 10.5628 63.2347 10.5248C63.4254 10.4894 63.5806 10.475 63.6844 10.3476C63.8982 10.1224 64.0162 9.82288 64.0135 9.51232C64.0135 9.05164 63.8414 8.51756 63.3748 8.51756C63.0643 8.51756 62.8221 8.74959 62.8221 8.96221C62.8221 9.01621 62.8567 9.10396 62.8913 9.22883C62.9259 9.33598 62.9605 9.47773 62.9605 9.67347C62.9605 9.97637 62.7884 10.2244 62.6112 10.2244C62.3049 10.2244 62.2501 10.135 61.8544 9.76122C61.0047 8.98077 60.5053 8.37582 59.5544 8.37582C59.3131 8.37582 58.5335 8.51756 57.8441 9.10649C56.9793 9.83631 56.6671 10.6336 56.6671 11.0952C56.6671 11.5727 57.0485 11.8081 57.4113 11.8081C57.8964 11.8081 57.9817 11.4352 57.9817 11.3103C57.9817 11.2032 57.9125 11.0066 57.8576 10.815C57.8095 10.6168 57.7201 10.3898 57.7201 10.227C57.7201 9.62116 58.444 9.08961 58.9823 9.08961C59.3308 9.08961 59.6919 9.2128 59.8809 9.39335C59.8303 10.8488 59.6025 11.7389 58.9477 12.9834C57.9454 14.886 56.182 15.8816 54.7477 15.8816C53.4188 15.8816 51.6537 15.1206 51.6883 12.8442V12.7016C53.4854 11.4411 56.3895 9.17905 57.8239 7.72277C59.4303 6.10703 60.0007 5.00343 60.0007 4.0787C60.0007 3.38685 59.6025 3.13794 59.2051 3.13794C58.876 3.13794 58.5132 3.386 58.5132 3.86861C58.5132 4.06267 58.5621 4.11667 58.7022 4.26095C58.8254 4.38329 58.9131 4.54444 58.9131 4.79503C58.9131 5.25571 58.5318 5.96781 58.2905 6.28506C57.807 6.94232 56.6123 8.18767 55.8538 8.8289C55.6977 8.60109 55.5247 8.13535 54.7637 8.13535C54.384 8.13535 53.3116 8.31254 52.1878 9.5216C50.8057 10.9779 50.5298 12.4552 50.5298 13.3437C50.5341 15.1704 51.6233 16.8916 54.3519 16.8916ZM51.7271 12.0216C51.8469 11.2766 52.1228 10.5645 52.6603 9.83631C53.18 9.14192 53.7453 8.87615 53.9908 8.87615C54.3199 8.87615 54.5595 9.08961 54.5595 9.42457C54.5595 9.46254 54.5595 9.69288 54.5426 9.85319C53.9731 10.3679 52.9547 11.1492 51.7271 12.0216ZM86.428 0.939186C86.3791 0.475135 86.304 0.281921 86.1378 0.281921C85.969 0.281921 85.8737 0.452355 85.7783 0.671725L78.7585 16.0031L71.4518 0.648944C71.3295 0.377263 71.2383 0.281921 71.0924 0.281921C70.9498 0.281921 70.8789 0.452355 70.8283 0.721505L69.1096 16.6368C69.0143 17.564 68.9434 18.5132 68.152 18.6626C67.7951 18.7377 67.6289 18.7377 67.4356 18.7377C67.3167 18.7377 67.2011 18.7832 67.2011 18.8575C67.2011 19.0321 67.3648 19.0777 67.6044 19.0777C68.2499 19.0777 69.3931 19.0051 69.6091 19.0051C69.8015 19.0051 70.9456 19.0777 71.8323 19.0777C72.1167 19.0777 72.2584 19.0321 72.2584 18.8583C72.2584 18.7849 72.1656 18.7377 72.0677 18.7377C71.9243 18.7377 71.5665 18.7107 71.1607 18.6128C70.9863 18.5775 70.8294 18.4833 70.7163 18.3459C70.6032 18.2085 70.5408 18.0364 70.5397 17.8585C70.5397 17.4434 70.5397 17.0038 70.565 16.6115L71.5201 5.28608H71.6155C71.8813 5.94419 74.5533 11.8047 74.7685 12.2418C74.89 12.4865 76.9411 16.7093 77.5638 17.9057C78.016 18.7832 78.1341 19.0296 78.3004 19.0296C78.5155 19.0296 78.5906 18.8077 79.0918 17.7319L84.9405 5.04224H85.0114L86.1555 17.6341C86.2044 18.0736 86.1825 18.4888 86.0601 18.5132C85.9429 18.5402 85.8939 18.5883 85.8939 18.6879C85.8939 18.8077 86.0163 18.8828 86.5613 18.9309C87.4481 19.0034 90.0231 19.076 90.5505 19.076C90.8407 19.076 91.0516 19.0034 91.0516 18.8558C91.0516 18.7579 90.9808 18.7351 90.8609 18.7351C90.6196 18.7351 90.0029 18.7351 89.311 18.5132C88.28 18.1732 88.1129 16.8072 88.0184 15.9272L86.428 0.939186ZM93.7136 13.1412C93.7136 15.1054 93.7136 16.722 93.6056 17.5801C93.5212 18.1749 93.4158 18.6229 92.9922 18.7081C92.7982 18.7486 92.5425 18.7874 92.3527 18.7874C92.2236 18.7874 92.1797 18.8507 92.1797 18.9115C92.1797 19.0346 92.2869 19.0751 92.5231 19.0751C92.842 19.0751 93.3314 19.0532 93.7575 19.033C94.2047 19.033 94.5658 19.0144 94.6096 19.0144C95.2256 19.0144 96.6523 19.1367 99.8635 19.1367C100.695 19.1367 100.866 19.1367 101.011 18.6027C101.119 18.1749 101.29 16.7827 101.29 16.6165C101.29 16.4731 101.29 16.3086 101.16 16.3086C101.056 16.3086 101.012 16.3955 100.971 16.6165C100.819 17.4543 100.565 17.8644 100.01 18.0897C99.4586 18.3149 98.5195 18.3149 97.9694 18.3149C95.8803 18.3149 95.5639 18.0492 95.4981 16.6393C95.4795 16.209 95.4981 13.8331 95.4981 13.1395V11.3373C95.4981 11.2546 95.5403 11.1939 95.6483 11.1939C96.0111 11.1939 98.1145 11.2361 98.6908 11.2968C99.5218 11.3786 99.7117 11.7271 99.796 12.0157C99.8804 12.2789 99.8804 12.4822 99.8804 12.689C99.8804 12.7902 99.9226 12.8754 100.026 12.8754C100.177 12.8754 100.177 12.6501 100.177 12.4839C100.177 12.3422 100.22 11.5871 100.265 11.1753C100.326 10.5003 100.434 10.151 100.434 10.0312C100.434 9.90719 100.392 9.865 100.326 9.865C100.244 9.865 100.157 9.96625 100.005 10.1325C99.8171 10.3375 99.5201 10.3763 99.0072 10.421C98.5153 10.4632 95.8972 10.4632 95.623 10.4632C95.5175 10.4632 95.4939 10.3999 95.4939 10.2565V4.60603C95.4939 4.46429 95.5361 4.40101 95.623 4.40101C95.8592 4.40101 98.1761 4.41957 98.5389 4.46176C99.6889 4.5841 99.9015 4.82962 100.052 5.15783C100.16 5.40336 100.178 5.75013 100.178 5.89188C100.178 6.05894 100.223 6.1585 100.351 6.1585C100.436 6.1585 100.478 6.03616 100.499 5.9366C100.539 5.69191 100.583 4.79081 100.607 4.5841C100.67 4.01374 100.777 3.76821 100.777 3.62225C100.777 3.51847 100.755 3.43916 100.691 3.43916C100.583 3.43916 100.499 3.51847 100.393 3.54462C100.09 3.59917 99.7834 3.63188 99.4754 3.6425C98.9886 3.66443 94.7497 3.66443 94.6037 3.66443C94.4924 3.66443 93.1525 3.60368 92.194 3.60368C91.962 3.60368 91.8523 3.64418 91.8523 3.76821C91.8523 3.84921 91.9392 3.88971 92.0253 3.88971C92.2177 3.88971 92.5805 3.90996 92.7467 3.95299C93.452 4.09473 93.6208 4.41957 93.663 5.11733C93.7069 5.77291 93.7068 6.34496 93.7068 9.54016V13.1412H93.7136ZM107.58 9.53848C107.58 6.34496 107.58 5.77291 107.625 5.11565C107.669 4.39848 107.838 4.05424 108.452 3.9513C108.712 3.90827 109.009 3.88802 109.156 3.88802C109.243 3.88802 109.334 3.84752 109.334 3.76652C109.334 3.63996 109.222 3.602 108.988 3.602C108.344 3.602 106.797 3.66275 106.69 3.66275C106.582 3.66275 105.239 3.602 104.282 3.602C104.05 3.602 103.943 3.64249 103.943 3.76652C103.943 3.84752 104.029 3.88802 104.116 3.88802C104.306 3.88802 104.667 3.90827 104.837 3.95046C105.542 4.09305 105.713 4.41704 105.751 5.1148C105.797 5.77038 105.797 6.34243 105.797 9.53848V13.1395C105.797 15.1029 105.797 16.7203 105.692 17.5775C105.608 18.1724 105.498 18.6212 105.069 18.7081C104.88 18.7469 104.622 18.7857 104.431 18.7857C104.304 18.7857 104.259 18.8482 104.259 18.9089C104.259 19.033 104.367 19.0735 104.601 19.0735C104.922 19.0735 105.39 19.0515 105.816 19.0313C106.24 19.0313 106.606 19.011 106.688 19.011C107.922 19.011 109.332 19.1342 112.389 19.1342C113.518 19.1342 113.578 19.0515 113.733 18.5824C113.902 17.9901 114.049 16.765 114.049 16.5355C114.049 16.306 114.032 16.2293 113.925 16.2293C113.792 16.2293 113.752 16.3322 113.731 16.4967C113.669 16.8848 113.459 17.3953 113.178 17.7227C112.664 18.3166 111.731 18.3386 110.602 18.3386C108.94 18.3386 108.384 18.1951 108.047 17.8703C107.663 17.4991 107.576 16.1913 107.576 13.1842V9.53848H107.58ZM119.619 9.53848C119.619 6.34496 119.619 5.77291 119.664 5.11565C119.709 4.39848 119.883 4.05424 120.469 3.9513C120.735 3.90827 120.867 3.88802 121.017 3.88802C121.107 3.88802 121.191 3.84752 121.191 3.76652C121.191 3.63996 121.086 3.602 120.845 3.602C120.186 3.602 118.815 3.66275 118.712 3.66275C118.597 3.66275 117.221 3.602 116.502 3.602C116.266 3.602 116.149 3.64249 116.149 3.76652C116.149 3.84752 116.236 3.88802 116.329 3.88802C116.477 3.88802 116.764 3.90827 117.006 3.97239C117.489 4.07448 117.707 4.41957 117.746 5.11565C117.792 5.77038 117.792 6.34243 117.792 9.53848V13.1395C117.792 15.1029 117.792 16.7203 117.684 17.5775C117.6 18.1724 117.487 18.6212 117.049 18.7081C116.833 18.7531 116.613 18.7791 116.391 18.7857C116.265 18.7857 116.214 18.8482 116.214 18.9089C116.214 19.033 116.329 19.0735 116.565 19.0735C117.221 19.0735 118.597 19.0127 118.712 19.0127C118.818 19.0127 120.188 19.0735 121.39 19.0735C121.631 19.0735 121.739 19.0127 121.739 18.9089C121.739 18.8499 121.698 18.7857 121.568 18.7857C121.369 18.7857 120.891 18.7453 120.588 18.7081C119.923 18.6212 119.798 18.1724 119.733 17.5775C119.619 16.7178 119.619 15.1012 119.619 13.1395V9.53848ZM127.366 6.48839C128.038 7.22244 130.396 9.80425 132.826 12.3624C135.045 14.6937 138.059 17.7041 138.287 17.9066C139.401 18.9925 139.648 19.2177 139.814 19.2177C139.958 19.2177 140.004 19.114 140.004 17.7606L140.046 5.77122C140.046 4.54275 140.126 4.0922 140.816 3.95046C141.075 3.88802 141.216 3.88802 141.324 3.88802C141.47 3.88802 141.551 3.82474 141.551 3.74796C141.551 3.62393 141.402 3.60453 141.174 3.60453C140.32 3.60453 139.627 3.66443 139.401 3.66443C139.164 3.66443 138.156 3.60368 137.226 3.60368C136.966 3.60368 136.8 3.62646 136.8 3.74712C136.8 3.82474 136.827 3.88802 136.966 3.88802C137.136 3.88802 137.617 3.90827 137.991 3.99096C138.641 4.1538 138.785 4.60603 138.809 5.9366L139.04 16.3322C138.368 15.6572 136.087 13.1614 134.017 10.9931C130.796 7.61477 127.677 4.32001 127.366 3.97324C127.155 3.76652 126.804 3.31513 126.634 3.31513C126.465 3.31513 126.406 3.54294 126.406 4.34026L126.381 16.0647C126.381 17.9268 126.275 18.5234 125.753 18.6634C125.441 18.7672 125.064 18.7874 124.9 18.7874C124.792 18.7874 124.732 18.8296 124.732 18.9115C124.732 19.0532 124.858 19.0751 125.064 19.0751C126.007 19.0751 126.883 19.0144 127.074 19.0144C127.264 19.0144 128.1 19.0751 129.289 19.0751C129.543 19.0751 129.662 19.033 129.662 18.9115C129.662 18.8305 129.606 18.7874 129.5 18.7874C129.313 18.7874 128.851 18.7672 128.451 18.6634C127.889 18.4997 127.677 17.9656 127.636 16.29L127.366 6.48839ZM145.14 13.1429C145.14 15.1054 145.14 16.722 145.03 17.5826C144.947 18.1766 144.844 18.6254 144.423 18.7107C144.217 18.7567 144.008 18.783 143.798 18.7891C143.667 18.7891 143.628 18.8524 143.628 18.9132C143.628 19.0372 143.734 19.0777 143.964 19.0777C144.592 19.0777 145.909 19.0169 146.009 19.0169C146.225 19.0169 148.856 19.2616 150.654 19.2616C154.211 19.2616 156.096 17.8273 156.994 16.9085C158.162 15.7019 159.255 13.7158 159.255 11.1373C159.255 8.70234 158.27 7.00391 157.224 5.93913C154.734 3.42313 150.903 3.60621 148.84 3.60621C147.585 3.60621 146.268 3.66696 146.009 3.66696C145.908 3.66696 144.59 3.60621 143.645 3.60621C143.42 3.60621 143.319 3.64671 143.319 3.7699C143.319 3.85174 143.4 3.89224 143.485 3.89224C143.667 3.89224 144.024 3.91249 144.194 3.95468C144.882 4.09811 145.049 4.42126 145.094 5.11902C145.138 5.7746 145.138 6.34665 145.138 9.54185V13.1429H145.14ZM146.895 9.20942C146.895 7.63334 146.895 5.54764 146.915 4.85325C146.915 4.62628 146.975 4.52419 147.17 4.44151C147.332 4.36051 148.105 4.29976 148.526 4.29976C151.013 4.29976 153.4 4.58578 155.368 6.61242C156.223 7.49328 157.374 9.17314 157.374 11.7718C157.374 13.6525 156.789 15.6192 155.704 16.6612C154.468 17.8678 152.67 18.5647 150.726 18.5647C148.256 18.5647 147.438 18.1344 147.17 17.7446C146.996 17.5218 146.955 16.7001 146.938 16.1888C146.915 15.8006 146.895 13.9183 146.895 11.7474V9.20942ZM162.076 16.3946C161.711 17.3919 161.31 18.1496 160.38 18.2702C160.22 18.2879 159.936 18.3099 159.798 18.3099C159.69 18.3099 159.614 18.3521 159.614 18.4305C159.614 18.5512 159.736 18.5908 160 18.5908C160.95 18.5908 162.054 18.5318 162.278 18.5318C162.496 18.5318 163.367 18.5908 163.851 18.5908C164.032 18.5908 164.152 18.5495 164.152 18.4305C164.152 18.3512 164.093 18.3099 163.947 18.3099H163.747C163.4 18.3099 162.978 18.1302 162.978 17.7302C162.978 17.37 163.079 16.8933 163.26 16.3946L164.47 12.8611C164.512 12.7598 164.567 12.7025 164.677 12.7025H169.013C169.111 12.7025 169.152 12.7446 169.193 12.8231L171.068 17.7302C171.195 18.0525 171.068 18.2331 170.95 18.2702C170.868 18.2879 170.807 18.3276 170.807 18.4086C170.807 18.5301 171.032 18.5301 171.413 18.5478C172.806 18.5892 174.276 18.5892 174.58 18.5892C174.802 18.5892 174.985 18.547 174.985 18.4289C174.985 18.3276 174.904 18.3082 174.782 18.3082C174.577 18.3082 174.274 18.2863 173.97 18.1875C173.548 18.0669 172.966 17.7488 172.236 15.9736C171.01 12.9379 167.843 4.69547 167.537 3.9378C167.299 3.3185 167.221 3.21979 167.095 3.21979C166.973 3.21979 166.891 3.34213 166.649 3.99939L162.076 16.3946ZM164.899 11.9819C164.842 11.9819 164.798 11.9431 164.842 11.8444L166.619 6.45465C166.713 6.15765 166.815 6.15765 166.919 6.45465L168.833 11.8444C168.853 11.9229 168.853 11.9828 168.755 11.9828L164.899 11.9819Z" fill="black"/>
</svg>
