<svg width="238" height="40" viewBox="0 0 238 40" fill="none" xmlns="http://www.w3.org/2000/svg">
<g clip-path="url(#clip0_191_12)">
<path d="M21.2 24.769C21.2 8.916 64.613 2.535 78.958 0.974V0C47.171 0.234 0 8.4 0 25.716C0 31.835 5.866 37.177 10.934 39.223H35.667C35.667 39.223 21.2 35.693 21.2 24.769Z" fill="#070F8F"/>
<path d="M38.8984 20.9249V21.8409C39.1724 21.8689 39.4904 21.8908 39.8634 21.9058C43.5534 22.0528 58.6714 21.7408 60.1014 29.0788C61.5074 36.2988 50.9654 38.2619 49.0274 39.2229H67.7384V20.9229L38.8984 20.9249Z" fill="#070F8F"/>
<path d="M103.533 34.8891H111.16L109.786 31.7021H104.757L103.533 34.8891Z" fill="#070F8F"/>
<path d="M123.012 24.0609H128.737C129.516 24.0149 130.282 24.2752 130.871 24.7863C131.46 25.2974 131.825 26.0187 131.889 26.7959C131.89 27.187 131.812 27.5743 131.661 27.935C131.509 28.2957 131.287 28.6225 131.008 28.8962C130.728 29.1699 130.397 29.385 130.033 29.5288C129.669 29.6727 129.281 29.7424 128.889 29.7339H123.013L123.012 24.0609ZM130.888 20.9229H118.188V39.2079H122.981V32.8979H130.681C132.253 32.9028 133.763 32.2895 134.885 31.1904C136.008 30.0913 136.653 28.5947 136.681 27.0239C136.706 24.3639 135.081 20.9239 130.881 20.9239" fill="#070F8F"/>
<path d="M142.76 20.9229V28.3929H150.96V20.9229H155.76V39.2089H150.906V31.6809H142.76V39.2089H137.96V20.9229H142.76Z" fill="#070F8F"/>
<path d="M195.769 20.9229V24.1138H189.418V39.2139H184.618V24.1138H178.318V20.9229H195.769Z" fill="#070F8F"/>
<path d="M224.53 20.9229L233.057 34.3458V20.9229H237.857V39.2089H231.705L223.018 25.8209V39.2089H218.207V20.9229H224.53Z" fill="#070F8F"/>
<path d="M76.0832 20.9219H71.2822V39.2079H76.0832V20.9219Z" fill="#070F8F"/>
<path d="M104.887 20.9229L97.5098 39.2089H101.962L107.162 25.4939L112.514 39.2089H117.014L109.263 20.9229H104.887Z" fill="#070F8F"/>
<path d="M168.13 23.3961C172.465 23.3961 174.188 26.6771 174.188 29.9611C174.188 33.4611 172.379 36.7431 167.932 36.7431C163.767 36.7431 161.959 33.3791 161.959 30.0141C161.959 26.5951 163.935 23.3961 168.13 23.3961ZM157.166 30.1521C157.166 34.9101 160.707 39.6431 167.649 39.6431C175.442 39.6431 178.929 35.0751 178.929 30.0691C178.929 25.2551 175.356 20.4141 167.99 20.4141C160.79 20.4141 157.166 25.3651 157.166 30.1521Z" fill="#070F8F"/>
<path d="M206.012 23.396C210.347 23.396 212.069 26.677 212.069 29.961C212.069 33.461 210.26 36.743 205.812 36.743C201.647 36.743 199.84 33.379 199.84 30.014C199.84 26.595 201.817 23.396 206.012 23.396ZM195.045 30.153C195.045 34.911 198.584 39.644 205.526 39.644C213.32 39.644 216.806 35.076 216.806 30.07C216.806 25.256 213.234 20.415 205.867 20.415C198.667 20.415 195.046 25.366 195.046 30.153" fill="#070F8F"/>
<path d="M95.3889 24.7428C93.6504 24.066 91.8034 23.7109 89.9379 23.6948C86.2219 23.6948 82.3018 25.7328 82.3018 29.9588C82.3018 35.2308 85.6499 35.5748 88.9099 35.5748C90.1959 35.5748 92.1179 35.5688 92.1179 35.5688V31.6978H88.5499V28.8838H96.4049V39.2078H88.8289C82.6529 39.2078 77.5059 36.9418 77.5059 30.1818C77.5059 23.9138 82.3059 20.4648 89.2579 20.4648C91.3159 20.4784 93.3682 20.682 95.3889 21.0728V24.7428Z" fill="#070F8F"/>
</g>
<defs>
<clipPath id="clip0_191_12">
<rect width="238" height="40" fill="white"/>
</clipPath>
</defs>
</svg>
