<svg width="103" height="53" viewBox="0 0 103 53" fill="none" xmlns="http://www.w3.org/2000/svg" className="has-dark-version">
<path d="M50.5071 18.2759C50.3849 18.2759 50.2626 18.1879 50.2626 18.0657V8.63251H48.0397C47.8991 8.63251 47.7769 8.52737 47.7769 8.38794V6.3228C47.7769 6.18223 47.8991 6.05994 48.0397 6.05994H55.0397C55.1803 6.05994 55.3026 6.18223 55.3026 6.3228V8.38794C55.3026 8.52737 55.1803 8.63251 55.0397 8.63251H52.8169V18.0657C52.8169 18.1879 52.6946 18.2759 52.5723 18.2759H50.5071Z" fill="#53626B"/>
<path d="M62.67 18.2759C62.5477 18.2759 62.4254 18.1708 62.4254 18.0314V13.4451H59.8003V18.0314C59.8003 18.1708 59.6768 18.2759 59.5546 18.2759H57.4723C57.3317 18.2759 57.2266 18.1708 57.2266 18.0314V6.30451C57.2266 6.16508 57.3317 6.05994 57.4723 6.05994H59.5546C59.6768 6.05994 59.8003 6.16508 59.8003 6.30451V10.8725H62.4254V6.30451C62.4254 6.16508 62.5477 6.05994 62.67 6.05994H64.7523C64.8928 6.05994 64.998 6.16508 64.998 6.30451V18.0314C64.998 18.1708 64.8928 18.2759 64.7523 18.2759H62.67Z" fill="#53626B"/>
<path d="M67.7626 18.2759C67.6221 18.2759 67.5181 18.1708 67.5181 18.0314V6.30451C67.5181 6.16508 67.6221 6.05994 67.7626 6.05994H74.1329C74.2552 6.05994 74.3786 6.16508 74.3786 6.30451V8.38794C74.3786 8.52737 74.2552 8.63251 74.1329 8.63251H70.0906V10.8725H73.1878C73.3284 10.8725 73.4335 10.9777 73.4335 11.1182V13.2005C73.4335 13.3411 73.3284 13.4451 73.1878 13.4451H70.0906V15.7034H74.1329C74.2552 15.7034 74.3786 15.8085 74.3786 15.9479V18.0314C74.3786 18.1708 74.2552 18.2759 74.1329 18.2759H67.7626Z" fill="#53626B"/>
<path d="M53.3949 33.1517C53.2544 33.1517 53.1321 33.0294 53.0795 32.9071L50.9446 27.0442V32.9071C50.9446 33.0294 50.8224 33.1517 50.7001 33.1517H48.6166C48.4772 33.1517 48.3721 33.0294 48.3721 32.9071V21.1802C48.3721 21.0408 48.4772 20.9357 48.6166 20.9357H51.1721C51.2944 20.9357 51.3824 21.0237 51.4349 21.1802L53.7446 27.9014L53.8326 28.0934V21.1802C53.8326 21.0408 53.9549 20.9357 54.0772 20.9357H56.1606C56.3001 20.9357 56.4052 21.0408 56.4052 21.1802V32.9071C56.4052 33.0294 56.3001 33.1517 56.1606 33.1517H53.3949Z" fill="#53626B"/>
<path d="M59.1699 33.1517C59.0293 33.1517 58.9253 33.0465 58.9253 32.9071V21.1802C58.9253 21.0408 59.0293 20.9357 59.1699 20.9357H65.5401C65.6624 20.9357 65.7859 21.0408 65.7859 21.1802V23.2637C65.7859 23.4031 65.6624 23.5082 65.5401 23.5082H61.4979V25.7482H64.595C64.7356 25.7482 64.8407 25.8534 64.8407 25.994V28.0762C64.8407 28.2168 64.7356 28.3208 64.595 28.3208H61.4979V30.5791H65.5401C65.6624 30.5791 65.7859 30.6842 65.7859 30.8237V32.9071C65.7859 33.0465 65.6624 33.1517 65.5401 33.1517H59.1699Z" fill="#53626B"/>
<path d="M74.0803 33.1517C73.9581 33.1517 73.8701 33.0465 73.8358 32.9071L72.6106 28.4968L72.4872 27.6214L72.3832 28.4968L71.0175 32.9071C70.9649 33.0637 70.8952 33.1517 70.7546 33.1517H68.5672C68.4449 33.1517 68.3398 32.994 68.3398 32.8888L67.4118 21.1802C67.3946 21.058 67.5169 20.9357 67.6575 20.9357H69.7226C69.8621 20.9357 69.9855 21.058 69.9855 21.1802L70.4049 27.1482L71.4026 24.3837C71.4552 24.2614 71.5775 24.138 71.7181 24.138H73.1181C73.2575 24.138 73.3981 24.2431 73.4506 24.3837L74.4301 27.1482L74.8678 21.1802C74.8678 21.058 74.9729 20.9357 75.1135 20.9357H77.1958C77.3181 20.9357 77.4586 21.058 77.4403 21.1802L76.4952 32.9071C76.4952 33.0111 76.4255 33.1517 76.2335 33.1517H74.0803Z" fill="#53626B"/>
<path d="M53.1846 40.642C53.2018 40.6248 53.2372 40.5894 53.2372 40.5368V38.8568C53.2372 38.8042 53.2372 38.7871 53.1846 38.7345L52.8875 38.4362C52.8521 38.402 52.7995 38.3837 52.7469 38.3837H50.9446V40.9745H52.7469C52.8166 40.9745 52.8521 40.9574 52.8875 40.922L53.1846 40.642ZM48.6166 48.0271C48.4772 48.0271 48.3721 47.9048 48.3721 47.7825V36.0568C48.3721 35.9162 48.4772 35.8111 48.6166 35.8111H54.1824C54.3572 35.8111 54.4966 35.8465 54.6372 35.9871L55.6178 36.9837C55.8098 37.194 55.8098 37.3162 55.8098 37.4397V41.9025C55.8098 42.0065 55.8269 42.1642 55.6178 42.3745L54.6372 43.3722C54.4795 43.53 54.3046 43.5471 54.2178 43.5471H50.9446V47.7825C50.9446 47.9048 50.8224 48.0271 50.6818 48.0271H48.6166Z" fill="#53626B"/>
<path d="M62.9151 40.6246C62.9505 40.5892 62.9677 40.5366 62.9677 40.484V38.892C62.9677 38.804 62.9677 38.7697 62.9151 38.7172L62.6523 38.4543C62.5825 38.3846 62.5128 38.3846 62.4248 38.3846H60.6751V40.9572H62.5128C62.5471 40.9572 62.5825 40.9572 62.6351 40.9046L62.9151 40.6246ZM63.5105 48.028C63.37 48.028 63.2477 47.9046 63.1951 47.7823L61.4797 43.5126H60.6751V47.7823C60.6751 47.9046 60.57 48.028 60.4294 48.028H58.3471C58.2248 48.028 58.1025 47.9046 58.1025 47.7823V36.0566C58.1025 35.9172 58.2248 35.812 58.3471 35.812H63.9128C64.0705 35.812 64.2454 35.8646 64.3677 35.9869L65.3654 36.9846C65.5757 37.1949 65.5403 37.3343 65.5403 37.4749V41.8852C65.5403 42.1126 65.5048 42.1994 65.3654 42.34L64.3151 43.372L66.1003 47.7823C66.1528 47.9046 66.1003 48.028 65.9254 48.028H63.5105Z" fill="#53626B"/>
<path d="M68.1828 48.0275C68.0422 48.0275 67.9382 47.9224 67.9382 47.783V36.0561C67.9382 35.9167 68.0422 35.8115 68.1828 35.8115H70.2651C70.4057 35.8115 70.5108 35.9167 70.5108 36.0561V47.783C70.5108 47.9224 70.4057 48.0275 70.2651 48.0275H68.1828Z" fill="#53626B"/>
<path d="M80.4682 48.0275C80.3288 48.0275 80.2053 47.9224 80.2053 47.783L80.1356 43.3372L78.7882 47.783C78.7528 47.9052 78.6133 48.0275 78.4728 48.0275H77.0728C76.9333 48.0275 76.7756 47.9224 76.7402 47.783L75.4099 43.3372L75.3231 47.783C75.3231 47.9224 75.2179 48.0275 75.0773 48.0275H72.9951C72.8728 48.0275 72.7505 47.9224 72.7505 47.783L73.2225 36.0561C73.2225 35.9338 73.2922 35.8115 73.4156 35.8115H75.6385C75.7779 35.8115 75.8659 35.8995 75.9002 36.039L77.4751 42.8127L77.6682 44.2824L77.8076 42.8127L79.6453 36.039C79.6808 35.8812 79.7688 35.8115 79.9082 35.8115H82.1311C82.2705 35.8115 82.3231 35.9338 82.3231 36.0561L82.7779 47.783C82.7779 47.9224 82.6739 48.0275 82.5333 48.0275H80.4682Z" fill="#53626B"/>
<path d="M88.9909 40.4145L87.9235 44.0019H90.0412L88.9909 40.4145ZM91.4766 48.027C91.336 48.027 91.1966 47.9048 91.1612 47.7825L90.7406 46.3653H87.2229L86.8035 47.7825C86.768 47.9048 86.6286 48.027 86.488 48.027H84.4926C84.2652 48.027 84.1955 47.9048 84.2309 47.7825L87.696 36.0568C87.7486 35.899 87.8183 35.811 87.9406 35.811H90.024C90.1463 35.811 90.216 35.899 90.2686 36.0739L93.7337 47.7825C93.7692 47.9048 93.664 48.027 93.4709 48.027H91.4766Z" fill="#53626B"/>
<path d="M95.7287 48.0275C95.5881 48.0275 95.4658 47.9224 95.4658 47.783V36.0035C95.4658 35.8995 95.6064 35.8115 95.7287 35.8115H97.7938C97.9161 35.8115 98.0384 35.8995 98.0384 36.0035V45.455H102.729C102.869 45.455 102.992 45.5772 102.992 45.6995V47.783C102.992 47.9224 102.869 48.0275 102.729 48.0275H95.7287Z" fill="#53626B"/>
<path d="M23.7868 51.4338H23.3628C23.2039 51.4338 23.0508 51.3698 22.9376 51.2566L19.5891 47.9081H17.0131C16.6805 47.9081 16.4108 47.6383 16.4108 47.3058C16.4108 46.9732 16.6805 46.7035 17.0131 46.7035H19.8393C19.9993 46.7035 20.1513 46.7675 20.2645 46.8795L23.5753 50.1915L26.5673 47.2006C26.6805 47.0875 26.8336 47.0246 26.9925 47.0246H34.1056C34.4382 47.0246 34.7079 47.2943 34.7079 47.6269C34.7079 47.9583 34.4382 48.2281 34.1056 48.2281H27.2416L24.2131 51.2578C24.0999 51.3698 23.9468 51.4338 23.7868 51.4338Z" fill="#53626B"/>
<path d="M13.1391 42.4163C13.0145 42.4163 12.8888 42.4357 12.7677 42.4757L7.68881 44.1248C7.19281 44.286 6.85681 44.7477 6.85681 45.27V49.3294C6.85681 49.8506 7.19281 50.3134 7.68881 50.4746L12.7677 52.1248C12.8888 52.1648 13.0145 52.1843 13.1391 52.1843C13.4854 52.1843 13.8225 52.0334 14.0557 51.7614L17.194 48.0803C17.578 47.63 17.578 46.9671 17.194 46.5168L14.0557 42.8391C13.8225 42.566 13.4854 42.4163 13.1391 42.4163ZM13.1391 43.6208L16.2774 47.2986L13.1391 50.9797L8.06138 49.3294V45.27L13.1391 43.6208Z" fill="#53626B"/>
<path d="M10.9912 46.3916C10.7397 46.3916 10.5043 46.2327 10.4197 45.9802C10.3146 45.6647 10.4849 45.3242 10.8003 45.2179L12.0837 44.7882C12.4003 44.683 12.7409 44.8533 12.846 45.1687C12.9523 45.4842 12.782 45.8247 12.4666 45.931L11.182 46.3607C11.1192 46.3813 11.054 46.3916 10.9912 46.3916Z" fill="#53626B"/>
<path d="M12.2755 49.8453C12.2126 49.8453 12.1486 49.835 12.0857 49.8144L10.8012 49.387C10.4857 49.2818 10.3155 48.9413 10.4206 48.6258C10.5246 48.3104 10.8652 48.1413 11.1817 48.2441L12.4663 48.6716C12.7817 48.7767 12.952 49.1173 12.8469 49.4327C12.7635 49.6853 12.528 49.8453 12.2755 49.8453Z" fill="#53626B"/>
<path d="M2.76049 49.2411C2.6062 49.2411 2.45306 49.1828 2.33535 49.0651C2.09992 48.8308 2.09878 48.4491 2.3342 48.2137L3.66906 46.8754C3.7822 46.7622 3.93535 46.6982 4.09535 46.6982H7.04392C7.37649 46.6982 7.6462 46.9679 7.6462 47.3005C7.6462 47.6331 7.37649 47.9028 7.04392 47.9028H4.34563L3.18678 49.0639C3.06906 49.1817 2.91478 49.2411 2.76049 49.2411Z" fill="#53626B"/>
<path d="M4.0954 47.9026C3.94112 47.9026 3.78683 47.8432 3.66912 47.7255L2.30226 46.3541C2.06797 46.1186 2.06797 45.7369 2.30455 45.5026C2.53883 45.2672 2.92055 45.2684 3.15597 45.5038L4.52283 46.8752C4.75712 47.1106 4.75597 47.4924 4.52055 47.7266C4.40283 47.8444 4.24969 47.9026 4.0954 47.9026Z" fill="#53626B"/>
<path d="M33.4775 18.7301L37.5232 21.0044L41.5655 18.7301L37.5232 16.4547L33.4775 18.7301ZM37.5232 22.2981C37.4215 22.2981 37.3197 22.2718 37.2283 22.2204L31.954 19.2558C31.7643 19.1484 31.6466 18.9484 31.6466 18.7301C31.6466 18.513 31.7643 18.313 31.954 18.2055L37.2283 15.2387C37.4112 15.1347 37.6352 15.1347 37.8192 15.2387L43.0877 18.2055C43.2775 18.313 43.3952 18.513 43.3952 18.7301C43.3952 18.9484 43.2775 19.1484 43.0877 19.2558L37.8192 22.2204C37.7266 22.2718 37.6249 22.2981 37.5232 22.2981Z" fill="#53626B"/>
<path d="M38.4442 18.7305C38.4442 19.2379 38.0305 19.6505 37.523 19.6505C37.011 19.6505 36.5962 19.2379 36.5962 18.7305C36.5962 18.2173 37.011 17.8036 37.523 17.8036C38.0305 17.8036 38.4442 18.2173 38.4442 18.7305Z" fill="#53626B"/>
<path d="M32.2498 16.3654C32.0395 16.3654 31.8349 16.2545 31.724 16.0579C31.5606 15.7676 31.6646 15.4008 31.9538 15.2385L37.228 12.2728C37.412 12.1699 37.636 12.1699 37.8189 12.2728L43.0886 15.2385C43.3778 15.4019 43.4806 15.7688 43.3172 16.0579C43.1549 16.3482 42.7869 16.4511 42.4978 16.2876L37.524 13.4888L32.5435 16.2876C32.4509 16.3402 32.3492 16.3654 32.2498 16.3654Z" fill="#53626B"/>
<path d="M45.4942 19.2098V26.9492L45.4931 26.9515L42.5273 21.6795L45.4931 19.2086L45.4942 19.2098Z" fill="#53626B"/>
<path d="M45.1078 18.7453L42.1421 21.2162C41.9193 21.4024 41.861 21.7213 42.0038 21.975L44.9696 27.247C45.0747 27.4367 45.2758 27.5544 45.493 27.5544L45.4941 25.7224L45.493 25.7247L43.2976 21.8219L45.493 19.9922L45.4941 19.9933V18.6059C45.357 18.6059 45.2198 18.6516 45.1078 18.7453Z" fill="#53626B"/>
<path d="M35.6732 7.15228C35.7852 7.26428 35.9395 7.32828 36.0995 7.32828H45.4949V6.12257H36.3486L30.52 0.295138C30.3486 0.122567 30.0892 0.0711402 29.864 0.164854C29.6389 0.258569 29.4915 0.477997 29.4915 0.721425V47.2997C29.4915 47.6323 29.7623 47.9031 30.0949 47.9031H45.4949V46.6986H30.696V2.17514L35.6732 7.15228Z" fill="#53626B"/>
<path d="M38.7154 37.6404C38.3829 37.6404 38.1132 37.3707 38.1132 37.0381V35.4027C38.1132 35.0701 38.3829 34.8004 38.7154 34.8004C39.048 34.8004 39.3177 35.0701 39.3177 35.4027V37.0381C39.3177 37.3707 39.048 37.6404 38.7154 37.6404Z" fill="#53626B"/>
<path d="M43.2341 37.6404C42.9016 37.6404 42.6318 37.3707 42.6318 37.0381V35.4027C42.6318 35.0701 42.9016 34.8004 43.2341 34.8004C43.5667 34.8004 43.8364 35.0701 43.8364 35.4027V37.0381C43.8364 37.3707 43.5667 37.6404 43.2341 37.6404Z" fill="#53626B"/>
<path d="M36.4541 33.1651C36.1215 33.1651 35.8518 32.8954 35.8518 32.5628V30.924C35.8518 30.5925 36.1215 30.3228 36.4541 30.3228C36.7867 30.3228 37.0564 30.5925 37.0564 30.924V32.5628C37.0564 32.8954 36.7867 33.1651 36.4541 33.1651Z" fill="#53626B"/>
<path d="M40.9731 33.1651C40.6406 33.1651 40.3708 32.8954 40.3708 32.5628V30.924C40.3708 30.5925 40.6406 30.3228 40.9731 30.3228C41.3057 30.3228 41.5754 30.5925 41.5754 30.924V32.5628C41.5754 32.8954 41.3057 33.1651 40.9731 33.1651Z" fill="#53626B"/>
<path d="M36.4541 42.1198C36.1215 42.1198 35.8518 41.8501 35.8518 41.5175V39.881C35.8518 39.5484 36.1215 39.2787 36.4541 39.2787C36.7867 39.2787 37.0564 39.5484 37.0564 39.881V41.5175C37.0564 41.8501 36.7867 42.1198 36.4541 42.1198Z" fill="#53626B"/>
<path d="M40.9731 42.1198C40.6406 42.1198 40.3708 41.8501 40.3708 41.5175V39.881C40.3708 39.5484 40.6406 39.2787 40.9731 39.2787C41.3057 39.2787 41.5754 39.5484 41.5754 39.881V41.5175C41.5754 41.8501 41.3057 42.1198 40.9731 42.1198Z" fill="#53626B"/>
<path d="M29.4989 29.7679H4.76288C4.57888 29.7679 4.40402 29.6822 4.28973 29.5382L0.244019 24.3828C0.101161 24.2011 0.0748741 23.9542 0.175446 23.7474C0.276017 23.5394 0.486304 23.4079 0.717161 23.4079H29.4989C29.8314 23.4079 30.1012 23.6777 30.1012 24.0102C30.1012 24.3428 29.8314 24.6125 29.4989 24.6125H1.95488L5.05659 28.5634H29.4989C29.8314 28.5634 30.1012 28.8331 30.1012 29.1657C30.1012 29.4982 29.8314 29.7679 29.4989 29.7679Z" fill="#53626B"/>
<path d="M29.4989 34.9241H12.6451C12.46 34.9241 12.2851 34.8384 12.1709 34.6932L8.13086 29.5378C7.988 29.3561 7.96172 29.1092 8.06343 28.9024C8.164 28.6944 8.37429 28.5641 8.604 28.5641H29.4989C29.8314 28.5641 30.1011 28.8338 30.1011 29.1652C30.1011 29.4978 29.8314 29.7675 29.4989 29.7675H9.84172L12.9389 33.7195H29.4989C29.8314 33.7195 30.1011 33.9892 30.1011 34.3218C30.1011 34.6544 29.8314 34.9241 29.4989 34.9241Z" fill="#53626B"/>
<path d="M29.4988 40.081H20.5331C20.3491 40.081 20.1743 39.9953 20.06 39.8501L16.0154 34.6936C15.8737 34.5119 15.8474 34.2661 15.948 34.0581C16.0486 33.8513 16.2588 33.7199 16.4897 33.7199H29.4988C29.8314 33.7199 30.1011 33.9896 30.1011 34.3221C30.1011 34.6547 29.8314 34.9244 29.4988 34.9244H17.7274L20.8268 38.8764H29.4988C29.8314 38.8764 30.1011 39.1461 30.1011 39.4787C30.1011 39.8113 29.8314 40.081 29.4988 40.081Z" fill="#53626B"/>
<path d="M29.9145 29.7679H9.91911C9.73397 29.7679 9.55911 29.6822 9.44482 29.5371L5.4014 24.3817C5.25968 24.2011 5.2334 23.9542 5.33397 23.7474C5.43454 23.5394 5.64482 23.4079 5.87568 23.4079H29.9145C30.2471 23.4079 30.5168 23.6777 30.5168 24.0102C30.5168 24.3428 30.2471 24.6125 29.9145 24.6125H7.11225L10.2117 28.5634H29.9145C30.2471 28.5634 30.5168 28.8331 30.5168 29.1657C30.5168 29.4982 30.2471 29.7679 29.9145 29.7679Z" fill="#53626B"/>
<path d="M29.9145 34.9241H17.8014C17.6174 34.9241 17.4425 34.8384 17.3282 34.6944L13.2814 29.5378C13.1385 29.3561 13.1122 29.1092 13.2128 28.9024C13.3145 28.6955 13.5248 28.5641 13.7545 28.5641H29.9145C30.2471 28.5641 30.5168 28.8338 30.5168 29.1652C30.5168 29.4978 30.2471 29.7675 29.9145 29.7675H14.9922L18.0951 33.7195H29.9145C30.2471 33.7195 30.5168 33.9892 30.5168 34.3218C30.5168 34.6544 30.2471 34.9241 29.9145 34.9241Z" fill="#53626B"/>
<path d="M29.9145 40.081H25.6836C25.4985 40.081 25.3236 39.9953 25.2093 39.8501L21.1693 34.6936C21.0265 34.5119 21.0013 34.265 21.1019 34.0581C21.2025 33.8513 21.4127 33.7199 21.6425 33.7199H29.9145C30.247 33.7199 30.5167 33.9896 30.5167 34.3221C30.5167 34.6547 30.247 34.9244 29.9145 34.9244H22.8802L25.9773 38.8764H29.9145C30.247 38.8764 30.5167 39.1461 30.5167 39.4787C30.5167 39.8113 30.247 40.081 29.9145 40.081Z" fill="#53626B"/>
<path d="M1.01819 24.396L4.76333 29.1652H9.40219L5.87533 24.0109L1.01819 24.396Z" fill="#53626B"/>
<path d="M5.05618 28.5636H8.26076L5.57504 24.639L2.18533 24.9076L5.05618 28.5636ZM9.40133 29.7681H4.76361C4.57847 29.7681 4.40361 29.6836 4.28933 29.5373L0.545327 24.7681C0.407042 24.5933 0.377328 24.3578 0.46647 24.1544C0.555613 23.951 0.748756 23.8138 0.97047 23.7956L5.82761 23.4104C6.0379 23.3921 6.25047 23.4927 6.37161 23.671L9.89847 28.8253C10.0253 29.0104 10.039 29.2493 9.93504 29.447C9.8299 29.6447 9.62533 29.7681 9.40133 29.7681Z" fill="#53626B"/>
<path d="M8.98718 29.548L12.7312 34.3217H17.3689L13.842 29.1651L8.98718 29.548Z" fill="#53626B"/>
<path d="M13.0245 33.7196H16.2279L13.5422 29.7939L10.1548 30.0602L13.0245 33.7196ZM17.3685 34.9242H12.7319C12.5468 34.9242 12.3719 34.8385 12.2576 34.6933L8.51361 29.9196C8.37647 29.7448 8.34675 29.5093 8.43589 29.3059C8.52504 29.1025 8.71818 28.9653 8.93989 28.9482L13.7948 28.5653C14.0119 28.5528 14.2176 28.6476 14.3388 28.8259L17.8656 33.9813C17.9913 34.1665 18.005 34.4053 17.9022 34.6031C17.797 34.7996 17.5925 34.9242 17.3685 34.9242Z" fill="#53626B"/>
<path d="M16.9552 34.7042L20.6981 39.4768H25.3381L21.8101 34.3214L16.9552 34.7042Z" fill="#53626B"/>
<path d="M20.9913 38.8748H24.1959L21.5102 34.9491L18.1228 35.2165L20.9913 38.8748ZM25.3376 40.0794H20.6988C20.5136 40.0794 20.3388 39.9937 20.2245 39.8485L16.4816 35.076C16.3445 34.9011 16.3148 34.6657 16.4039 34.4623C16.4931 34.2588 16.6873 34.1217 16.9079 34.1046L21.7628 33.7217C21.9822 33.7057 22.1856 33.804 22.3068 33.9823L25.8348 39.1365C25.9605 39.3217 25.9742 39.5605 25.8702 39.7583C25.7662 39.9548 25.5616 40.0794 25.3376 40.0794Z" fill="#53626B"/>
<path d="M29.8838 46.2324C29.8838 47.1421 28.2346 50.0175 28.2346 50.0175C28.2346 50.0175 26.5878 47.1421 26.5878 46.2324C26.5878 45.3192 27.3272 44.5821 28.2346 44.5821C29.1489 44.5821 29.8838 45.3192 29.8838 46.2324Z" fill="#53626B"/>
<path d="M28.2341 45.1846C27.6581 45.1846 27.1895 45.6543 27.1895 46.2326C27.1895 46.588 27.6707 47.6783 28.2341 48.7617C28.7998 47.6783 29.2809 46.5869 29.2809 46.2326C29.2809 45.6543 28.8112 45.1846 28.2341 45.1846ZM28.2341 50.62C28.0181 50.62 27.8192 50.5034 27.7118 50.3171C27.3072 49.6097 25.9861 47.2246 25.9861 46.2326C25.9861 44.9903 26.9941 43.98 28.2341 43.98C29.4764 43.98 30.4855 44.9903 30.4855 46.2326C30.4855 47.2246 29.1621 49.6097 28.7564 50.3171C28.6489 50.5046 28.4501 50.62 28.2341 50.62Z" fill="#53626B"/>
<path d="M33.1849 46.2324C33.1849 47.1421 31.5335 50.0175 31.5335 50.0175C31.5335 50.0175 29.8832 47.1421 29.8832 46.2324C29.8832 45.3192 30.6215 44.5821 31.5335 44.5821C32.4443 44.5821 33.1849 45.3192 33.1849 46.2324Z" fill="#53626B"/>
<path d="M31.5333 45.1846C30.9561 45.1846 30.4864 45.6543 30.4864 46.2326C30.4864 46.588 30.9676 47.6794 31.5333 48.7629C32.1001 47.6794 32.5824 46.588 32.5824 46.2326C32.5824 45.6543 32.1127 45.1846 31.5333 45.1846ZM31.5333 50.62C31.3173 50.62 31.1184 50.5046 31.011 50.3171C30.6053 49.6097 29.2819 47.2246 29.2819 46.2326C29.2819 44.9903 30.2921 43.98 31.5333 43.98C32.7756 43.98 33.787 44.9903 33.787 46.2326C33.787 47.2257 32.4613 49.6109 32.0556 50.3171C31.9481 50.5046 31.7493 50.62 31.5333 50.62Z" fill="#53626B"/>
<path d="M36.4803 46.2324C36.4803 47.1421 34.8323 50.0175 34.8323 50.0175C34.8323 50.0175 33.1854 47.1421 33.1854 46.2324C33.1854 45.3192 33.9226 44.5821 34.8323 44.5821C35.742 44.5821 36.4803 45.3192 36.4803 46.2324Z" fill="#53626B"/>
<path d="M34.8329 45.1846C34.2569 45.1846 33.7872 45.6543 33.7872 46.2326C33.7872 46.588 34.2684 47.6783 34.8329 48.7617C35.3975 47.6783 35.8786 46.588 35.8786 46.2326C35.8786 45.6543 35.4089 45.1846 34.8329 45.1846ZM34.8329 50.62C34.6169 50.62 34.4181 50.5046 34.3106 50.3171C33.9049 49.6097 32.5826 47.2246 32.5826 46.2326C32.5826 44.9903 33.5918 43.98 34.8329 43.98C36.0741 43.98 37.0821 44.9903 37.0821 46.2326C37.0821 47.2246 35.7609 49.6097 35.3552 50.3171C35.2478 50.5046 35.0489 50.62 34.8329 50.62Z" fill="#53626B"/>
</svg>
