<svg width="223" height="36" viewBox="0 0 223 36" fill="none" xmlns="http://www.w3.org/2000/svg">
<g clip-path="url(#clip0_197_28)">
<path fill-rule="evenodd" clip-rule="evenodd" d="M0.688178 34.5369V27.727C4.50571 28.947 7.88372 29.5569 10.8222 29.5569C14.8792 29.5569 16.9081 28.4681 16.9081 26.292C16.9081 25.4808 16.6128 24.799 16.021 24.247C15.4158 23.6615 13.8657 22.8498 11.3748 21.8099C6.90542 19.944 3.99103 18.3528 2.63541 17.0366C0.878397 15.2993 0 13.1085 0 10.4611C0 7.05172 1.28002 4.45315 3.83828 2.66742C6.36821 0.897304 9.66259 0.0131531 13.7265 0.0131531C15.9657 0.0131531 19.2065 0.431568 23.4456 1.26953V7.8204C20.2914 6.54115 17.3637 5.90289 14.6587 5.90289C10.8496 5.90289 8.9452 6.96478 8.9452 9.0933C8.9452 9.88893 9.32876 10.5378 10.097 11.0409C10.7359 11.448 12.4963 12.3079 15.3743 13.6234C19.5183 15.492 22.277 17.1163 23.6516 18.4979C25.2826 20.1367 26.0997 22.2573 26.0997 24.8565C26.0997 28.5926 24.4992 31.4425 21.3005 33.4062C18.709 34.9986 15.3486 35.7915 11.2214 35.7915C7.73587 35.7915 4.22407 35.3747 0.688178 34.5369Z" fill="#009A9A"/>
<path fill-rule="evenodd" clip-rule="evenodd" d="M31.457 0.612213H40.9434V35.0946H31.457V0.612213Z" fill="#009A9A"/>
<path fill-rule="evenodd" clip-rule="evenodd" d="M49.6433 35.0946V0.612213H73.9737V6.84904H58.7863V14.6352H72.0062V20.3241H58.7863V28.507H74.3651V35.0946H49.6433Z" fill="#009A9A"/>
<path fill-rule="evenodd" clip-rule="evenodd" d="M80.5581 35.0946V0.612213H92.8577L101.403 22.6449L110.162 0.612213H121.845V35.0946H112.851V10.6802L102.89 35.4446H97.0102L87.2419 10.6802V35.0946H80.5581Z" fill="#009A9A"/>
<path fill-rule="evenodd" clip-rule="evenodd" d="M130.547 35.0946V0.612213H154.877V6.84904H139.691V14.6352H152.91V20.3241H139.691V28.507H155.27V35.0946H130.547Z" fill="#009A9A"/>
<path fill-rule="evenodd" clip-rule="evenodd" d="M161.512 35.0946V0.612213H172.507L184.172 23.6955V0.612213H190.854V35.0946H180.171L168.197 11.7007V35.0946H161.512Z" fill="#009A9A"/>
<path fill-rule="evenodd" clip-rule="evenodd" d="M197.588 34.5367V27.7268C201.374 28.9467 204.751 29.5567 207.724 29.5567C211.782 29.5567 213.808 28.4678 213.808 26.2918C213.808 25.4805 213.521 24.7988 212.949 24.2468C212.34 23.6613 210.784 22.8496 208.278 21.8096C203.822 19.9592 200.905 18.3686 199.537 17.0364C197.78 15.3145 196.904 13.1155 196.904 10.4373C196.904 7.04263 198.18 4.45266 200.741 2.66693C203.268 0.896816 206.566 0.0126648 210.63 0.0126648C212.915 0.0126648 215.876 0.381042 219.508 1.12119L220.346 1.26904V7.81991C217.192 6.54066 214.256 5.9024 211.536 5.9024C207.742 5.9024 205.849 6.96429 205.849 9.09282C205.849 9.88844 206.231 10.5373 206.997 11.0404C207.606 11.4319 209.373 12.2923 212.299 13.6229C216.412 15.4915 219.165 17.1158 220.551 18.4974C222.185 20.1362 223 22.2568 223 24.8561C223 28.5921 221.409 31.442 218.226 33.4057C215.62 34.9981 212.251 35.791 208.124 35.791C204.635 35.7912 201.122 35.3744 197.588 34.5367Z" fill="#009A9A"/>
</g>
<defs>
<clipPath id="clip0_197_28">
<rect width="223" height="36" fill="white"/>
</clipPath>
</defs>
</svg>
