<svg width="57" height="32" xmlns="http://www.w3.org/2000/svg">
    <path d="M22.377 31.607a8075.583 8075.583 0 0 0 5.517-24.205c.017-.075-.035-.146-.106-.145-1.382.022-2.993.057-4.766.099a.11.11 0 0 0-.103.088 5118.065 5118.065 0 0 1-5.43 23.586c-.015.069.031.14.099.149a89.54 89.54 0 0 0 4.678.513.107.107 0 0 0 .111-.085m10.599-3.77c1.332-5.902 2.66-11.8 3.988-17.67.016-.073-.035-.142-.105-.142l-2.139-.012a.111.111 0 0 0-.107.09c-1.333 5.902-2.668 11.823-4.006 17.739-.016.073.035.144.105.143.685-.009 1.406-.028 2.16-.057a.115.115 0 0 0 .104-.091M42.405 8a9052.489 9052.489 0 0 0-5.15 22.794c-.116.512-.532.895-1.02.932-3.446.274-7.537.354-10.702.184-.415-.022-.712-.447-.614-.877C27.427 20.05 29.577 11.36 32.07.331a.11.11 0 0 1 .108-.09c1.568.025 3.131.076 4.69.153.068.003.116.072.1.144-.67 2.956-.99 3.53-1.662 6.5.651.014 4.393.09 6.489.123.412.007.707.413.61.84zm6.872 2.13c-.605 2.622-1.21 5.26-1.816 7.91-.017.073.036.139.107.133.701-.056 1.409-.116 2.12-.179a.12.12 0 0 0 .104-.093c.599-2.61 1.198-5.203 1.798-7.78.016-.07-.033-.135-.102-.134l-2.062.02a.156.156 0 0 0-.149.124m-2.487 10.85c-.422 1.857-.845 3.72-1.268 5.59-.017.075.04.142.112.131.712-.106 1.429-.218 2.148-.336a.125.125 0 0 0 .099-.096c.202-.893.405-1.784.608-2.674a.122.122 0 0 1 .1-.095c1.6-.224 3.221-.474 4.833-.747.072-.013.129.05.111.125-.43 1.863-.86 3.736-1.291 5.617a.969.969 0 0 1-.684.717c-2.92.766-7.97 1.739-11.201 2.104-.436.052-.77-.357-.667-.815A6450.421 6450.421 0 0 1 44.805 8.03c.092-.402.438-.685.828-.676 2.863.068 7.774-.046 10.743.01a.622.622 0 0 1 .589.781 2057.24 2057.24 0 0 0-2.641 11.325.926.926 0 0 1-.758.707 212.472 212.472 0 0 1-6.776.805M29.428 0c.07 0 .121.07.105.145l-1.08 4.777a.11.11 0 0 1-.104.09c-1.546.028-6.247.16-7.27.189a.108.108 0 0 0-.1.088 4469.374 4469.374 0 0 1-5.876 25.417.1.1 0 0 1-.115.08 98.459 98.459 0 0 1-8.778-1.88.128.128 0 0 1-.091-.095C4.084 19.887 2.049 11.131.003 2.627a.107.107 0 0 1 .087-.132c1.566-.24 3.14-.47 4.722-.684a.107.107 0 0 1 .118.083c.376 1.478 5.27 22.757 5.605 24.33a.12.12 0 0 0 .096.092l.188.031a.099.099 0 0 0 .114-.077c1.996-8.406 3.994-16.99 5.99-25.675a.11.11 0 0 1 .095-.087C20.17.228 25.916.012 29.428 0z" fill="#303AB2" fill-rule="evenodd"/>
</svg>