<svg width="40" height="40" viewBox="0 0 40 40" fill="none" xmlns="http://www.w3.org/2000/svg">
<g clip-path="url(#clip0_209_45)">
<path d="M40 0H0V40H40V0Z" fill="#DB8454"/>
<path d="M21.46 11.92V8.19H18.54V11.92H8.32996V14.85H18.54V18.58H21.46V14.85H31.67V11.92H21.46Z" fill="#F9F9FC"/>
<path d="M28.75 25H11.25V21.27H8.32996V26.27C8.32995 26.7457 8.51822 27.202 8.85362 27.5393C9.18903 27.8766 9.6443 28.0674 10.12 28.07H18.54V31.8H21.46V28.08H29.88C30.3556 28.0774 30.8109 27.8866 31.1463 27.5493C31.4817 27.212 31.67 26.7557 31.67 26.28V21.28H28.75V25Z" fill="#F9F9FC"/>
</g>
<defs>
<clipPath id="clip0_209_45">
<rect width="40" height="40" rx="8" fill="white"/>
</clipPath>
</defs>
</svg>
