<svg xmlns="http://www.w3.org/2000/svg" viewBox="0 0 18.9 18.9"><defs><style>.cls-1{fill:#362d2d;}</style></defs><g id="Layer_2" data-name="Layer 2"><g id="Layer_1-2" data-name="Layer 1"><path class="cls-1" d="M9.45,18.9A9.45,9.45,0,1,1,18.9,9.45,9.46,9.46,0,0,1,9.45,18.9Zm8-8a11.87,11.87,0,0,0-5-.35A33.92,33.92,0,0,1,14,16.34a8.12,8.12,0,0,0,3.46-5.41Zm-4.82,6a33.84,33.84,0,0,0-1.72-6.12l-.05,0a11,11,0,0,0-6.33,5,8,8,0,0,0,4.95,1.7,7.88,7.88,0,0,0,3.15-.64Zm-9.36-2A12.89,12.89,0,0,1,9.8,9.53l.32-.09c-.2-.46-.42-.92-.65-1.37a29.75,29.75,0,0,1-8.3,1.14v.25a8.09,8.09,0,0,0,2.07,5.4Zm-1.69-7A30.39,30.39,0,0,0,9,6.83,52.51,52.51,0,0,0,6,2.16,8.07,8.07,0,0,0,1.55,7.8ZM7.47,1.62a43.1,43.1,0,0,1,3,4.72,9.1,9.1,0,0,0,4.23-2.91,8,8,0,0,0-5.35-2,8.43,8.43,0,0,0-1.89.22ZM15.7,4.36a10.75,10.75,0,0,1-4.51,3.18q.29.59.54,1.17l.17.42a18.6,18.6,0,0,1,5.62.26,7.94,7.94,0,0,0-1.82-5Z"/></g></g></svg>