<svg xmlns="http://www.w3.org/2000/svg" viewBox="0 0 19.2 18.43"><defs><style>.cls-1{fill:#362d2d;}</style></defs><g id="Layer_2" data-name="Layer 2"><g id="Layer_1-2" data-name="Layer 1"><path class="cls-1" d="M9.45,0a9.45,9.45,0,0,0-3,18.42c.47.08.65-.21.65-.46s0-.82,0-1.61c-2.63.58-3.19-1.26-3.19-1.26A2.56,2.56,0,0,0,2.86,13.7c-.86-.58.07-.57.07-.57a2,2,0,0,1,1.44,1,2,2,0,0,0,2.76.79,2,2,0,0,1,.6-1.26C5.63,13.39,3.42,12.58,3.42,9a3.67,3.67,0,0,1,1-2.54,3.4,3.4,0,0,1,.09-2.5s.79-.25,2.59,1a8.9,8.9,0,0,1,4.73,0c1.8-1.22,2.59-1,2.59-1a3.45,3.45,0,0,1,.09,2.5,3.67,3.67,0,0,1,1,2.54c0,3.63-2.21,4.43-4.31,4.66a2.26,2.26,0,0,1,.64,1.75c0,1.26,0,2.28,0,2.58s.17.55.65.45A9.44,9.44,0,0,0,9.45,0"/></g></g></svg>