<svg xmlns="http://www.w3.org/2000/svg" viewBox="0 0 18.9 18.9"><defs><style>.cls-1{fill:#362d2d;}</style></defs><g id="Layer_2" data-name="Layer 2"><g id="Layer_1-2" data-name="Layer 1"><path class="cls-1" d="M15.75,15.75H12.6V11.36c0-1,0-2.39-1.46-2.39s-1.69,1.14-1.69,2.32v4.46H7.09V7.09H9.45V8.66h0a3.18,3.18,0,0,1,2.76-1.32c2.95,0,3.5,1.7,3.5,3.91v4.5ZM3.82,6A1.63,1.63,0,1,1,5.45,4.33,1.62,1.62,0,0,1,3.82,6Zm1.69,9.8H2.36V7.09H5.51ZM17.5,0H1.39A1.37,1.37,0,0,0,0,1.36V17.54A1.37,1.37,0,0,0,1.39,18.9H17.5a1.38,1.38,0,0,0,1.4-1.36V1.36A1.38,1.38,0,0,0,17.5,0Z"/></g></g></svg>