<svg width="15" height="15" viewBox="0 0 15 15" fill="none" xmlns="http://www.w3.org/2000/svg">
<path d="M1.66 11.362C3.01954 11.6491 4.43529 11.4929 5.69956 10.9164C6.96384 10.3399 8.01011 9.37344 8.68489 8.15877C9.35966 6.9441 9.62744 5.54517 9.44893 4.16717C9.27042 2.78917 8.65502 1.50465 7.693 0.502014C8.89504 0.535205 10.0683 0.877491 11.0996 1.49588C12.1309 2.11426 12.9855 2.9879 13.581 4.03256C14.1766 5.07723 14.493 6.25769 14.4997 7.46017C14.5064 8.66264 14.2033 9.84658 13.6195 10.8978C13.0356 11.9491 12.1909 12.8323 11.1665 13.4621C10.1422 14.092 8.97291 14.4474 7.77132 14.4941C6.56973 14.5407 5.37639 14.277 4.30632 13.7284C3.23625 13.1799 2.32555 12.3649 1.662 11.362H1.66Z" stroke="white" stroke-linejoin="round"/>
</svg>
