<svg width="15" height="16" viewBox="0 0 15 16" fill="none" xmlns="http://www.w3.org/2000/svg">
<g clip-path="url(#clip0_176_5749)">
<path fill-rule="evenodd" clip-rule="evenodd" d="M4.6869 1.21907C5.58051 0.857494 6.53563 0.671509 7.5 0.671509C8.48491 0.671509 9.46018 0.865502 10.3701 1.24241C11.2801 1.61932 12.1069 2.17177 12.8033 2.86821C12.8201 2.885 12.8368 2.90187 12.8534 2.91882C12.8584 2.92373 12.8633 2.92873 12.8681 2.9338C13.5341 3.61634 14.064 4.41984 14.4291 5.30138C14.806 6.21133 15 7.18659 15 8.17151C15 8.44832 14.9847 8.72355 14.9546 8.99607C14.9535 9.01793 14.951 9.03991 14.947 9.0619C14.7484 10.723 13.9983 12.2798 12.8033 13.4748C12.2135 14.0646 11.5356 14.546 10.8005 14.9063C10.7747 14.9218 10.7473 14.9351 10.7185 14.9458C9.7222 15.4192 8.62411 15.6715 7.5 15.6715C5.51088 15.6715 3.60322 14.8813 2.1967 13.4748C0.790176 12.0683 2.98023e-08 10.1606 0 8.17151C0 7.93189 0.0114824 7.69284 0.0342877 7.45517C0.0349075 7.44652 0.0357481 7.43793 0.0368038 7.42941C0.109427 6.69906 0.289004 5.98195 0.570903 5.30138C0.947814 4.39144 1.50026 3.56465 2.1967 2.86821C2.8887 2.17621 3.70939 1.62637 4.61248 1.24964C4.63664 1.23734 4.66154 1.22715 4.6869 1.21907ZM4.69449 2.30814C4.03087 2.62566 3.42519 3.05393 2.90381 3.57531C2.30023 4.1789 1.82144 4.89545 1.49478 5.68407C1.3221 6.10096 1.19372 6.53368 1.11106 6.97508C3.64048 6.89074 5.6582 6.64432 7.32667 6.1332C6.60203 4.84852 5.7299 3.58626 4.69449 2.30814ZM8.28347 5.79542C7.56129 4.49323 6.69642 3.21734 5.67547 1.93283C6.267 1.75984 6.88131 1.67151 7.5 1.67151C8.35359 1.67151 9.19883 1.83964 9.98744 2.16629C10.657 2.44365 11.2747 2.83069 11.8154 3.31067C10.8193 4.42749 9.68294 5.22985 8.28347 5.79542ZM7.80691 7.03045C5.94552 7.62977 3.72715 7.89525 1.00285 7.97907C1.00095 8.04316 1 8.10731 1 8.17151C1 9.76267 1.58341 11.2937 2.63177 12.4785C4.20181 10.2642 5.96256 8.92204 7.91356 8.29581C8.05625 8.25001 8.19964 8.20814 8.34372 8.1701C8.17667 7.78695 7.99786 7.40738 7.80691 7.03045ZM9.34524 7.96761C9.16174 7.53551 8.96421 7.10813 8.75219 6.6843C10.2075 6.08175 11.4316 5.22731 12.5115 4.03211C12.9223 4.52943 13.2575 5.08603 13.5052 5.68407C13.8319 6.47268 14 7.31792 14 8.17151C14 8.22331 13.9994 8.27505 13.9981 8.32672C12.3893 7.90981 10.8335 7.75496 9.34524 7.96761ZM8.72525 9.10483C8.55499 9.14666 8.3863 9.19432 8.21919 9.24796C6.48388 9.80496 4.85742 11.0258 3.35959 13.1822C4.5196 14.1408 5.98244 14.6715 7.5 14.6715C8.36599 14.6715 9.21417 14.4987 9.99842 14.1722C9.74809 12.3673 9.33257 10.6997 8.72525 9.10483ZM10.9386 13.6875C10.6834 12.0041 10.2855 10.4328 9.72672 8.927C11.0266 8.78034 12.4141 8.93522 13.8953 9.33382C13.6604 10.6258 13.0376 11.8263 12.0962 12.7677C11.7437 13.1202 11.3549 13.428 10.9386 13.6875Z" fill="black"/>
</g>
<defs>
<clipPath id="clip0_176_5749">
<rect width="15" height="15" fill="white" transform="translate(0 0.671509)"/>
</clipPath>
</defs>
</svg>
