<svg width="16" height="15" viewBox="0 0 16 15" fill="none" xmlns="http://www.w3.org/2000/svg">
<g clip-path="url(#clip0_176_5743)">
<path fill-rule="evenodd" clip-rule="evenodd" d="M2 2C1.86739 2 1.74021 2.05268 1.64645 2.14645C1.55268 2.24021 1.5 2.36739 1.5 2.5V4.20984L8 7.92412L14.5 4.20984V2.5C14.5 2.36739 14.4473 2.24021 14.3536 2.14645C14.2598 2.05268 14.1326 2 14 2H2ZM14.5 5.36159L8 9.07588L1.5 5.36159V12.5C1.5 12.6326 1.55268 12.7598 1.64645 12.8536C1.74022 12.9473 1.86739 13 2 13H14C14.1326 13 14.2598 12.9473 14.3536 12.8536C14.4473 12.7598 14.5 12.6326 14.5 12.5V5.36159ZM0.93934 1.43934C1.22064 1.15804 1.60218 1 2 1H14C14.3978 1 14.7794 1.15804 15.0607 1.43934C15.342 1.72064 15.5 2.10218 15.5 2.5V12.5C15.5 12.8978 15.342 13.2794 15.0607 13.5607C14.7794 13.842 14.3978 14 14 14H2C1.60217 14 1.22064 13.842 0.93934 13.5607C0.658035 13.2794 0.5 12.8978 0.5 12.5V2.5C0.5 2.10218 0.658035 1.72064 0.93934 1.43934Z" fill="black"/>
</g>
<defs>
<clipPath id="clip0_176_5743">
<rect width="15" height="15" fill="white" transform="translate(0.5)"/>
</clipPath>
</defs>
</svg>
