<svg width="15" height="15" viewBox="0 0 15 15" fill="none" xmlns="http://www.w3.org/2000/svg">
<g clip-path="url(#clip0_176_5745)">
<path d="M5.65001 12.477C5.77652 12.4372 5.88204 12.3488 5.94336 12.2312C6.00469 12.1136 6.01679 11.9765 5.97701 11.85C5.93723 11.7235 5.84882 11.618 5.73123 11.5566C5.61365 11.4953 5.47652 11.4832 5.35001 11.523L5.65001 12.477ZM2.00201 9.51699L1.51801 9.38899L1.26401 10.357L1.74801 10.484L2.00201 9.51599V9.51699ZM9.00001 14.5V15H10V14.5H9.00001ZM9.06301 9.68699L9.00901 9.18999C8.91504 9.20005 8.82585 9.23655 8.75177 9.29523C8.6777 9.35392 8.62177 9.4324 8.59047 9.52157C8.55918 9.61075 8.5538 9.70697 8.57495 9.79908C8.59611 9.89118 8.64294 9.97541 8.71001 10.042L9.06201 9.68799L9.06301 9.68699ZM12.5 5.91299H13V5.90999L12.5 5.91299ZM11.667 3.90599L11.201 3.72599C11.1662 3.81615 11.1582 3.91448 11.1781 4.00908C11.1979 4.10367 11.2448 4.19048 11.313 4.25899L11.667 3.90599ZM11.617 1.88899L12.073 1.68499C12.0432 1.61852 11.9991 1.55938 11.944 1.5117C11.8889 1.46403 11.8241 1.42897 11.754 1.40899L11.617 1.88899ZM9.44401 2.68099L9.31801 3.16499C9.38516 3.18253 9.45522 3.18589 9.52374 3.17488C9.59227 3.16386 9.65774 3.13869 9.71601 3.10099L9.44401 2.68099ZM5.55601 2.68099L5.28401 3.10099C5.34227 3.13869 5.40775 3.16386 5.47627 3.17488C5.54479 3.18589 5.61486 3.18253 5.68201 3.16499L5.55601 2.68099ZM3.38301 1.88999L3.24601 1.40999C3.17575 1.42984 3.1107 1.46484 3.05542 1.51252C3.00013 1.5602 2.95596 1.61941 2.92601 1.68599L3.38301 1.88999ZM3.33301 3.90699L3.68701 4.25999C3.75539 4.19139 3.80238 4.10441 3.82227 4.00961C3.84215 3.91481 3.83407 3.81628 3.79901 3.72599L3.33301 3.90699ZM2.50001 5.92999H3.00001V5.92799L2.50001 5.92999ZM5.93801 9.68799L6.29001 10.043C6.35662 9.97676 6.40322 9.8931 6.42449 9.80161C6.44575 9.71011 6.44081 9.61448 6.41023 9.52566C6.37965 9.43684 6.32467 9.35843 6.25158 9.29942C6.1785 9.24041 6.09027 9.20318 5.99701 9.19199L5.93701 9.68799H5.93801ZM5.50001 11H6.00001L5.99901 10.963L5.50001 11ZM5.00001 14.5V15H6.00001V14.5H5.00001ZM5.35001 11.523C4.74701 11.713 4.36401 11.692 4.11001 11.608C3.85901 11.525 3.66601 11.358 3.48101 11.118C3.3843 10.9886 3.29419 10.8544 3.21101 10.716C3.12601 10.577 3.02901 10.414 2.93101 10.269C2.74001 9.98799 2.45801 9.63599 2.00201 9.51599L1.74801 10.484C1.82801 10.504 1.93201 10.579 2.10301 10.83C2.18501 10.952 2.26301 11.082 2.36101 11.242C2.45501 11.394 2.56301 11.562 2.68801 11.726C2.94101 12.056 3.28601 12.389 3.79801 12.558C4.30801 12.726 4.91401 12.708 5.65001 12.477L5.35001 11.523ZM10 10.938C10 10.62 9.98601 10.33 9.89601 10.06C9.80001 9.77199 9.63401 9.54999 9.41501 9.33299L8.71001 10.043C8.86501 10.196 8.91801 10.288 8.94701 10.376C8.98201 10.481 9.00001 10.63 9.00001 10.938H10ZM9.11601 10.185C10.019 10.088 11.004 9.85999 11.763 9.20299C12.543 8.52799 13 7.47399 13 5.91299H12C12 7.27199 11.61 8.01299 11.108 8.44699C10.584 8.90099 9.85001 9.09999 9.00901 9.18999L9.11601 10.185ZM13 5.90999C12.997 5.02552 12.6448 4.17803 12.02 3.55199L11.313 4.25899C11.751 4.69899 11.998 5.29199 12 5.91299L13 5.90999ZM12.133 4.08599C12.283 3.70199 12.353 3.29199 12.343 2.87899L11.343 2.90399C11.3503 3.18402 11.3021 3.46272 11.201 3.72399L12.133 4.08599ZM12.343 2.87899C12.3329 2.46672 12.2411 2.06156 12.073 1.68499L11.16 2.09199C11.275 2.34799 11.336 2.62399 11.343 2.90399L12.343 2.87899ZM11.617 1.88899C11.754 1.40799 11.754 1.40699 11.753 1.40699H11.75L11.746 1.40499C11.7361 1.40232 11.7261 1.39999 11.716 1.39799C11.6461 1.38401 11.5752 1.37599 11.504 1.37399C11.3325 1.37179 11.1613 1.38991 10.994 1.42799C10.569 1.51899 9.97001 1.74499 9.17401 2.25999L9.71601 3.09999C10.435 2.63599 10.922 2.46599 11.204 2.40599C11.3043 2.38291 11.4071 2.37283 11.51 2.37599L11.502 2.37499C11.4987 2.37438 11.4953 2.37372 11.492 2.37299L11.486 2.37099H11.483L11.481 2.36999C11.48 2.36999 11.479 2.36999 11.617 1.88799V1.88899ZM9.57001 2.19599C8.21267 1.84229 6.78734 1.84229 5.43001 2.19599L5.68201 3.16499C6.8741 2.85432 8.12592 2.85432 9.31801 3.16499L9.57001 2.19599ZM5.82701 2.25999C5.03001 1.74599 4.43001 1.51999 4.00501 1.42999C3.8377 1.39223 3.6665 1.37444 3.49501 1.37699C3.4139 1.3792 3.33319 1.38925 3.25401 1.40699L3.25001 1.40899H3.24701L3.38301 1.88999L3.52001 2.37099L3.51701 2.37199L3.51401 2.37299C3.50871 2.37446 3.50337 2.37579 3.49801 2.37699C3.59821 2.3744 3.69833 2.38548 3.79601 2.40799C4.07801 2.46799 4.56501 2.63699 5.28401 3.10099L5.82701 2.26199V2.25999ZM2.92701 1.68399C2.75892 2.06056 2.66715 2.46673 2.65701 2.87899L3.65701 2.90399C3.66295 2.62379 3.72518 2.34765 3.84001 2.09199L2.92701 1.68399ZM2.65701 2.87899C2.64701 3.29199 2.71701 3.70199 2.86701 4.08599L3.79901 3.72399C3.69762 3.46279 3.64902 3.18409 3.65601 2.90399L2.65601 2.87899H2.65701ZM2.97901 3.55199C2.66762 3.86438 2.42092 4.23512 2.25301 4.64299L3.17701 5.02299C3.29501 4.73799 3.46901 4.47799 3.68701 4.25799L2.97901 3.55199ZM2.25301 4.64299C2.0848 5.05116 1.99882 5.48852 2.00001 5.92999L3.00001 5.92799C3.00001 5.61799 3.06001 5.31099 3.17701 5.02499L2.25301 4.64499V4.64299ZM2.00001 5.92999C2.00001 7.48299 2.45801 8.52699 3.23901 9.19799C3.99601 9.84799 4.97901 10.078 5.87901 10.185L5.99701 9.19199C5.15001 9.08999 4.41601 8.88999 3.89001 8.43799C3.38801 8.00699 3.00001 7.27599 3.00001 5.92799H2.00001V5.92999ZM5.58501 9.33399C5.08501 9.83199 4.95601 10.424 5.00101 11.038L5.99901 10.963C5.96901 10.555 6.05201 10.28 6.29101 10.042L5.58601 9.33299L5.58501 9.33399ZM5.00001 11V14.5H6.00001V11H5.00001ZM10 14.5V13H9.00001V14.5H10ZM10 13V10.938H9.00001V13H10Z" fill="black"/>
</g>
<defs>
<clipPath id="clip0_176_5745">
<rect width="15" height="15" fill="white"/>
</clipPath>
</defs>
</svg>
