<svg width="15" height="16" viewBox="0 0 15 16" fill="none" xmlns="http://www.w3.org/2000/svg">
<g clip-path="url(#clip0_176_5747)">
<path fill-rule="evenodd" clip-rule="evenodd" d="M1.5 1.5C1.36739 1.5 1.24021 1.55268 1.14645 1.64645C1.05268 1.74021 1 1.86739 1 2V14C1 14.1326 1.05268 14.2598 1.14645 14.3536C1.24022 14.4473 1.36739 14.5 1.5 14.5H13.5C13.6326 14.5 13.7598 14.4473 13.8536 14.3536C13.9473 14.2598 14 14.1326 14 14V2C14 1.86739 13.9473 1.74022 13.8536 1.64645C13.7598 1.55268 13.6326 1.5 13.5 1.5H1.5ZM0.43934 0.93934C0.720644 0.658035 1.10218 0.5 1.5 0.5H13.5C13.8978 0.5 14.2794 0.658035 14.5607 0.93934C14.842 1.22064 15 1.60217 15 2V14C15 14.3978 14.842 14.7794 14.5607 15.0607C14.2794 15.342 13.8978 15.5 13.5 15.5H1.5C1.10217 15.5 0.720644 15.342 0.43934 15.0607C0.158035 14.7794 0 14.3978 0 14V2C0 1.60218 0.158035 1.22064 0.43934 0.93934ZM5 5.5H4V4.5H5V5.5ZM4 11.5V6.5H5V11.5H4ZM7 9V11.5H6V6.5H7V6.99999C7.4302 6.67733 7.95596 6.5 8.5 6.5C9.16304 6.5 9.79893 6.76339 10.2678 7.23223C10.7366 7.70107 11 8.33696 11 9V11.5H10V9C10 8.60218 9.84196 8.22064 9.56066 7.93934C9.27936 7.65804 8.89782 7.5 8.5 7.5C8.10218 7.5 7.72064 7.65804 7.43934 7.93934C7.15804 8.22064 7 8.60218 7 9Z" fill="black"/>
</g>
<defs>
<clipPath id="clip0_176_5747">
<rect width="15" height="15" fill="white" transform="translate(0 0.5)"/>
</clipPath>
</defs>
</svg>
