<svg xmlns="http://www.w3.org/2000/svg" viewBox="0 0 105 32.64"><defs><style>.cls-1{fill:#74c947;}</style></defs><g id="Layer_2" data-name="Layer 2"><g id="Layer_1-2" data-name="Layer 1"><g id="g837"><path id="path8" class="cls-1" d="M41.43,22.68h-.84l-.28-2.17A13.7,13.7,0,0,1,38.59,22a4.76,4.76,0,0,1-4.57.28,3.29,3.29,0,0,1-2.08-3.11,3.35,3.35,0,0,1,1.68-3,7.85,7.85,0,0,1,4-1.06c.83,0,1.66,0,2.47,0,.46-2.77-.84-4-3-4.21a5,5,0,0,0-3.4,1l-.37.28a.65.65,0,0,1-.2.05l-.49-.66a6,6,0,0,1,6.4-1.2,3.84,3.84,0,0,1,2.18,3.72c.06,1.92,0,3.85,0,5.78C41.29,20.79,41.37,21.69,41.43,22.68ZM40.21,16c-.85,0-1.6,0-2.36,0a8.93,8.93,0,0,0-3.33.68A2.67,2.67,0,0,0,33.71,21a4.09,4.09,0,0,0,5.67-.84A6.61,6.61,0,0,0,40.21,16ZM63,9.94a6.07,6.07,0,0,1,6.28,6.48,6.28,6.28,0,1,1-12.56-.14A6,6,0,0,1,63,9.94Zm5.26,6.36a5.09,5.09,0,0,0-4.33-5.37A5.17,5.17,0,0,0,59.62,12a5.58,5.58,0,0,0-1.7,5.92,5,5,0,0,0,6,3.78A5.1,5.1,0,0,0,68.24,16.3Zm13.58,6.37h-1V10h.8l.11,2.5c.49-.53.86-1,1.29-1.4a4.64,4.64,0,0,1,6.43.24,5,5,0,0,1,1.1,3.37c0,2.26,0,4.53,0,6.8v1.16h-.91c0-.3,0-.56,0-.82V15.31a11.15,11.15,0,0,0-.13-1.53C89,10.49,85.78,10.26,84,11.53a5.16,5.16,0,0,0-2.13,4.36c-.06,2,0,4,0,6,0,.24,0,.48,0,.79ZM101.7,11.93l-.88.48-.33-.44a3.67,3.67,0,0,0-4.26-.76,1.9,1.9,0,0,0-1.14,1.69,1.88,1.88,0,0,0,.89,2,8.37,8.37,0,0,0,1.36.54c.79.25,1.6.45,2.38.72a3,3,0,0,1,2.14,2.8,3.41,3.41,0,0,1-2.12,3.37A5.31,5.31,0,0,1,94,21.17c-.18-.19-.33-.42-.54-.68l.81-.52a3.88,3.88,0,0,0,2.76,1.77,3.38,3.38,0,0,0,3.16-.91,2.2,2.2,0,0,0-.61-3.6,22.46,22.46,0,0,0-2.47-.84c-.43-.14-.85-.28-1.27-.45a2.8,2.8,0,0,1-1.81-3,2.85,2.85,0,0,1,2-2.62,4.77,4.77,0,0,1,5.09.88A4.76,4.76,0,0,1,101.7,11.93Zm-47.44-.26-.71.67a3.91,3.91,0,0,1-.49-.34,4.75,4.75,0,0,0-6.68.54,6,6,0,0,0,.21,7.8,5,5,0,0,0,6.45.51c.18-.12.35-.28.56-.44l.64.62a4.38,4.38,0,0,1-2.35,1.43,6,6,0,0,1-7.19-3A6.72,6.72,0,0,1,47,10.79a6,6,0,0,1,6.69.35C53.84,11.29,54,11.46,54.26,11.67Zm19.07,11h-1V10h.8l.22,2.25A4.4,4.4,0,0,1,77.83,10c0,.17,0,.28.06.42a2.43,2.43,0,0,1,0,.38c-.07,0-.11.07-.14.07-2.53-.2-3.65,1.65-4.08,3.31a10,10,0,0,0-.28,2.24c0,1.89,0,3.77,0,5.65,0,.19,0,.37,0,.61Z"/><path id="path8-7" class="cls-1" d="M12,0a6.35,6.35,0,0,1,3.49,3.77c1.49.35,2.92.61,4.29,1a10.08,10.08,0,0,1,5.91,4.5,6.74,6.74,0,0,1,1,5,1.25,1.25,0,0,1-1.4,1.18h-24a2.55,2.55,0,0,1-.4,0,2.18,2.18,0,0,1-1-1.74,10.12,10.12,0,0,1,.37-2.63A8.79,8.79,0,0,1,2.63,7.37,12.62,12.62,0,0,1,9.35,4.11C10.16,4,11,3.85,11.8,3.72A3.94,3.94,0,0,0,11.32,0ZM1.63,16.66H25.21c0,.71.14,1.37.13,2A13.66,13.66,0,0,1,23,26.5a10.89,10.89,0,0,1-6.5,4.25,4.1,4.1,0,0,0-2.31,1.32,5.21,5.21,0,0,1-.69.57,4.74,4.74,0,0,1-1-.75,2.89,2.89,0,0,0-1.87-1.05A10.79,10.79,0,0,1,3,25.18a13.87,13.87,0,0,1-1.45-5.93C1.53,18.41,1.61,17.56,1.63,16.66Z"/></g></g></g></svg>